<svg xmlns="http://www.w3.org/2000/svg" xmlns:xlink="http://www.w3.org/1999/xlink" viewBox="474.02 496.68 347.5 63.69">
  <g transform="matrix(0.193296 0 0 0.193296 694.331893 528.528259)" style="">
<g id="FIFfFX-jviRxyvIWlnjXf" vector-effect="non-scaling-stroke">
		<g transform="matrix(1 0 0 1 0 0)" style="stroke: rgb(193,193,193); stroke-width: 0; stroke-dasharray: none; stroke-linecap: round; stroke-dashoffset: 0; stroke-linejoin: miter; stroke-miterlimit: 10; fill: rgb(12,4,223); fill-rule: nonzero; opacity: 1;">
<path id="Layer_1-2" vector-effect="non-scaling-stroke" transform=" translate(-657.95, -164.75)" d="M 1315.90 171.20 L 1315.90 171.00 L 1315.90 171.00 L 1315.90 170.80 L 1315.80 170.80 L 1315.80 170.60 L 1315.30 170.60 C 1275.50 161.60 1235.10 163.40 1196.00 165.10 C 1184.40 165.60 1172.60 166.10 1160.70 166.30 L 1137.80 166.30 L 1129.60 166.10 L 1129.10 166.10 C 1077.10 164.90 1032.90 161.40 989.10 150.10 C 945.30 138.80 906.10 115.80 867.40 93.40 L 845.40 80.80 L 845.00 80.60 L 836.80 76.00 L 814.00 63.50 C 813.82 63.23 813.52 63.08 813.20 63.10 C 793.50 52.60 772.40 42.10 750.10 32.30 L 749.50 32.10 C 719.48 18.84 688.41 8.10 656.60 0.00 L 656.20 0.00 C 599.60 11.90 541.30 17.00 484.90 22.00 C 432.90 26.50 379.20 31.20 327.00 41.30 L 311.60 44.40 L 311.30 44.40 C 301.00 46.60 290.70 49.10 280.40 51.80 L 279.90 51.80 C 259.50 57.20 238.90 63.60 218.30 70.80 L 218.00 70.80 C 217.77 70.82 217.55 70.93 217.40 71.10 C 207.20 75.00 196.90 78.90 186.70 83.00 L 186.50 83.00 L 181.00 85.20 C 172.60 88.70 164.10 92.30 155.70 96.00 L 155.40 96.00 L 124.90 109.50 L 124.90 109.50 C 124.64 109.54 124.40 109.64 124.20 109.80 L 124.10 109.80 L 93.60 123.50 L 93.40 123.50 C 63.30 136.70 32.50 149.10 0.70 157.90 L 0.30 157.90 C 0.20 158.00 0.20 158.00 0.20 158.10 C 0.20 158.20 0.10 158.20 0.10 158.30 L 0.00 158.30 L 0.00 158.70 L 0.00 158.70 C 0.06 158.75 0.09 158.82 0.10 158.90 L 0.10 158.90 L 0.40 159.10 L 0.40 159.10 L 0.70 159.30 L 0.80 159.30 C 11.40 161.80 22.10 163.70 32.90 165.30 L 33.30 165.30 C 63.60 169.70 94.10 170.90 123.90 172.10 L 156.30 173.60 L 156.70 173.60 L 179.30 175.00 C 205.30 177.10 228.50 179.50 249.90 182.40 L 250.50 182.40 C 276.72 185.91 302.73 190.89 328.40 197.30 C 344.42 201.50 360.18 206.64 375.60 212.70 L 375.60 212.70 C 375.85 213.11 376.33 213.31 376.80 213.20 C 405.50 224.40 433.40 238.20 460.70 251.80 L 470.80 256.80 L 471.00 256.80 L 479.40 261.00 C 523.20 282.40 561.50 298.80 597.60 311.20 C 597.70 311.40 597.90 311.40 598.10 311.40 C 618.18 318.44 638.61 324.45 659.30 329.40 C 659.30 329.50 659.40 329.50 659.50 329.50 L 659.70 329.50 C 717.70 317.70 773.40 315.40 821.90 315.50 L 822.40 315.50 L 830.60 317.80 L 831.30 317.80 C 836.67 319.29 842.11 320.49 847.60 321.40 L 854.30 322.80 C 864.48 324.74 874.83 325.68 885.20 325.60 C 917.20 325.60 950.40 317.60 983.00 309.20 L 990.10 307.90 L 1003.80 305.00 L 1005.70 304.60 L 1006.10 304.40 C 1015.10 302.20 1024.00 299.70 1032.70 297.00 L 1036.90 296.10 C 1037.24 296.01 1037.51 295.74 1037.60 295.40 C 1046.10 292.60 1054.50 289.60 1062.80 286.30 L 1068.00 285.20 C 1068.50 285.02 1068.83 284.53 1068.80 284.00 L 1068.80 284.00 C 1076.30 281.00 1083.70 277.90 1091.00 274.60 L 1099.10 272.70 C 1099.37 272.66 1099.60 272.50 1099.73 272.27 C 1099.87 272.03 1099.89 271.75 1099.80 271.50 C 1099.80 271.20 1099.50 271.00 1099.30 270.80 C 1106.80 267.40 1114.20 263.80 1121.60 260.20 L 1130.10 258.20 C 1130.37 258.16 1130.60 258.00 1130.73 257.77 C 1130.87 257.53 1130.89 257.25 1130.80 257.00 C 1130.70 256.49 1130.22 256.14 1129.70 256.20 L 1129.40 256.20 C 1137.20 252.30 1144.90 248.30 1152.60 244.30 L 1161.00 242.60 C 1161.27 242.55 1161.50 242.40 1161.66 242.17 C 1161.81 241.94 1161.86 241.67 1161.80 241.40 C 1161.75 241.13 1161.60 240.90 1161.37 240.74 C 1161.14 240.59 1160.87 240.54 1160.60 240.60 L 1159.40 240.90 L 1169.60 235.60 L 1184.90 227.60 L 1191.90 226.40 C 1192.45 226.32 1192.83 225.80 1192.75 225.25 C 1192.67 224.70 1192.15 224.32 1191.60 224.40 L 1190.70 224.60 C 1199.80 219.90 1209.00 215.20 1218.20 210.70 L 1222.70 210.30 C 1223.20 210.20 1223.70 209.70 1223.60 209.20 C 1223.58 208.84 1223.34 208.52 1223.00 208.40 C 1232.50 203.70 1242.10 199.30 1251.80 195.00 L 1253.40 195.00 C 1253.95 195.00 1254.40 194.55 1254.40 194.00 L 1254.40 194.00 C 1274.15 185.19 1294.46 177.71 1315.20 171.60 L 1315.20 171.60 L 1315.50 171.40 L 1315.60 171.40 L 1315.80 171.10 L 1315.90 171.10 Z M 1284.30 180.30 L 1284.30 180.30 C 1274.90 179.40 1265.50 179.00 1256.10 178.90 C 1264.80 174.80 1273.60 170.80 1282.40 167.10 L 1282.40 167.10 C 1291.97 168.04 1301.48 169.48 1310.90 171.40 C 1301.90 174.10 1293.10 177.10 1284.30 180.30 Z M 1251.40 193.70 Q 1237.60 193.90 1223.80 195.20 C 1233.10 190.30 1242.50 185.50 1251.90 180.90 C 1261.20 180.90 1270.60 181.20 1280.00 182.00 C 1270.30 185.60 1260.80 189.60 1251.40 193.70 Z M 1022.20 295.60 L 1018.00 296.80 L 1024.90 294.70 Z M 659.50 328.00 C 650.80 325.90 642.00 323.60 633.20 321.10 C 642.50 319.20 651.90 317.70 661.30 316.30 C 669.80 318.80 678.20 321.10 686.70 323.10 C 677.70 324.60 668.60 326.20 659.50 328.00 Z M 602.10 311.30 C 611.60 309.40 621.10 307.70 630.60 306.40 C 639.30 309.50 648.10 312.30 656.80 315.00 C 647.50 316.30 638.30 318.00 629.20 319.80 L 629.10 319.80 C 620.20 317.20 611.20 314.40 602.10 311.30 Z M 570.40 299.70 C 580.00 297.60 589.50 295.80 599.10 294.30 C 608.30 298.10 617.40 301.70 626.50 305.00 C 617.10 306.40 607.80 308.00 598.40 310.00 C 589.20 306.80 579.90 303.40 570.40 299.70 Z M 538.10 286.50 C 547.80 284.00 557.40 281.90 567.00 280.20 C 576.60 284.70 586.10 288.90 595.50 292.90 C 586.10 294.40 576.60 296.20 567.00 298.40 C 557.60 294.70 548.00 290.70 538.10 286.50 Z M 505.70 271.90 C 515.50 268.90 525.20 266.30 534.70 264.20 C 544.60 269.30 554.30 274.20 563.90 278.70 C 554.30 280.50 544.70 282.60 535.10 285.20 C 525.60 281.00 515.80 276.60 505.70 271.90 Z M 440.60 240.20 C 430.80 235.40 421.00 230.70 411.10 226.20 C 420.90 221.50 430.60 217.20 440.20 213.20 C 449.90 218.00 459.50 223.10 469.20 228.30 C 459.90 231.70 450.40 235.70 440.60 240.20 Z M 346.90 201.10 L 356.20 196.30 L 375.70 186.30 C 385.80 189.60 395.60 193.30 405.30 197.30 C 395.20 202.00 385.70 206.90 376.70 211.60 C 366.90 207.70 357.00 204.20 346.90 201.10 Z M 284.40 186.30 L 313.00 170.20 C 322.60 172.20 332.20 174.40 341.70 176.70 C 332.00 181.80 322.30 186.90 312.70 192.10 C 303.60 190.00 294.10 188.10 284.40 186.30 Z M 253.40 181.40 C 262.80 175.90 272.30 170.20 281.60 164.30 C 291.10 165.90 300.60 167.60 310.00 169.60 L 281.30 185.80 C 272.30 184.20 263.10 182.70 253.40 181.40 Z M 222.80 177.60 C 231.90 171.80 241.00 165.80 250.00 159.80 C 259.50 160.90 269.00 162.30 278.60 163.80 C 269.20 169.70 259.70 175.50 250.20 180.90 C 241.40 179.70 232.30 178.60 222.80 177.60 Z M 190.90 174.50 C 200.00 168.80 209.10 162.90 218.10 156.80 C 227.60 157.50 237.30 158.30 246.90 159.40 C 238.00 165.40 228.90 171.40 219.90 177.10 L 219.70 177.30 C 210.50 176.30 200.90 175.30 190.90 174.50 Z M 129.20 170.80 C 138.20 165.80 147.20 160.50 156.30 155.10 C 165.30 155.10 174.40 155.10 183.50 155.30 C 174.40 161.10 165.40 166.70 156.40 172.10 Z M 94.80 169.30 C 86.00 168.90 77.20 168.30 68.30 167.60 C 77.50 163.60 86.50 159.40 95.50 155.10 L 121.60 155.30 C 112.80 160.00 103.90 164.70 95.00 169.20 Z M 5.00 158.70 C 13.90 156.20 22.70 153.30 31.50 150.30 L 31.80 150.30 C 41.00 151.70 50.30 152.60 59.50 153.30 C 50.80 157.00 42.00 160.50 33.20 163.70 C 23.80 162.40 14.40 160.80 5.00 158.70 Z M 62.70 138.60 L 62.80 138.60 C 72.00 139.20 81.30 139.50 90.50 139.60 C 81.60 143.70 72.60 147.80 63.60 151.60 C 54.20 151.00 44.80 150.10 35.50 148.80 C 44.70 145.70 53.70 142.20 62.70 138.60 Z M 94.10 125.40 C 103.20 125.50 112.40 125.30 121.50 124.80 C 112.70 129.20 103.70 133.50 94.70 137.70 C 85.50 137.70 76.20 137.50 66.90 136.90 C 76.10 133.20 85.10 129.40 94.10 125.40 Z M 124.90 111.80 L 125.30 111.60 C 134.30 111.20 143.30 110.50 152.30 109.70 L 138.10 116.70 L 126.10 122.60 C 116.90 123.10 107.80 123.40 98.70 123.40 Z M 218.80 73.00 C 226.50 72.10 234.20 71.10 242.00 69.90 C 234.40 72.70 226.70 75.70 219.20 78.80 C 210.90 80.00 202.60 81.20 194.40 82.10 C 202.50 78.90 210.70 75.90 218.80 73.00 Z M 280.70 53.90 C 287.10 53.30 293.50 52.60 300.00 51.70 Q 291.90 53.80 283.80 56.20 L 260.50 59.50 C 267.20 57.50 274.00 55.60 280.70 53.90 Z M 321.00 48.70 L 331.10 47.10 L 344.30 45.10 C 339.00 46.30 333.70 47.50 328.50 48.90 L 305.50 52.60 L 302.20 53.20 C 308.50 51.60 314.70 50.10 321.00 48.70 Z M 374.20 35.60 L 374.70 35.80 L 386.50 35.80 L 379.80 36.50 L 372.40 36.90 L 359.80 37.60 C 364.60 36.90 369.40 36.30 374.20 35.60 Z M 469.00 27.00 C 475.70 27.90 482.20 28.90 488.70 30.10 L 465.20 30.80 C 456.20 29.70 447.20 28.80 438.00 28.40 C 437.72 28.37 437.44 28.46 437.23 28.66 C 437.02 28.85 436.90 29.12 436.90 29.40 C 436.90 29.95 437.35 30.40 437.90 30.40 Q 444.70 30.70 451.40 31.30 L 431.30 32.30 L 412.40 30.90 C 431.10 28.80 449.80 27.10 468.30 25.40 L 468.10 25.90 C 468.07 26.17 468.15 26.43 468.32 26.64 C 468.49 26.84 468.73 26.97 469.00 27.00 Z M 656.40 2.00 C 665.40 4.30 674.30 6.80 683.00 9.40 C 673.70 11.50 664.40 13.40 655.00 15.20 C 646.20 12.30 637.50 9.60 628.80 7.30 C 638.00 5.70 647.20 3.90 656.40 2.00 Z M 714.40 20.10 C 704.90 22.40 695.40 24.60 685.90 26.50 C 676.80 22.80 667.80 19.50 658.90 16.50 C 668.20 14.70 677.50 12.70 686.70 10.60 L 686.80 10.60 C 696.20 13.60 705.40 16.70 714.40 20.10 Z M 746.30 32.90 C 736.60 35.60 727.00 38.10 717.40 40.20 C 707.90 35.80 698.60 31.60 689.30 27.80 C 698.60 25.90 708.00 23.80 717.40 21.40 L 717.70 21.40 C 727.40 25.00 737.00 28.90 746.30 32.90 Z M 778.50 47.70 C 768.60 50.90 758.90 53.80 749.40 56.30 C 739.60 51.00 729.90 46.20 720.40 41.60 C 729.90 39.40 739.50 36.90 749.20 34.20 C 759.30 38.50 769.00 43.10 778.50 47.70 Z M 810.60 64.00 C 800.60 67.80 790.90 71.30 781.50 74.40 C 771.50 68.40 761.60 62.90 752.00 57.70 C 761.50 55.10 771.20 52.20 781.00 49.00 C 781.00 48.97 781.01 48.95 781.03 48.93 C 781.05 48.91 781.07 48.90 781.10 48.90 C 791.20 53.90 801.10 58.90 810.60 64.00 Z M 875.00 100.10 C 885.00 105.80 895.00 111.50 905.10 117.00 L 893.70 123.60 L 876.30 133.60 C 866.10 127.70 856.00 121.40 846.20 115.10 C 855.40 110.80 864.90 105.80 875.00 100.10 Z M 937.50 133.20 C 927.20 139.80 917.60 145.60 908.40 150.80 C 898.10 145.80 888.10 140.40 878.30 134.80 L 894.70 125.30 C 898.80 122.90 902.90 120.50 907.10 118.20 C 907.10 118.17 907.11 118.15 907.13 118.13 C 907.15 118.11 907.17 118.10 907.20 118.10 C 917.20 123.40 927.30 128.50 937.50 133.20 Z M 1033.30 160.80 L 1004.90 180.20 L 1004.10 180.80 C 994.50 178.90 985.00 176.90 975.60 174.60 C 985.60 168.20 995.30 161.80 1004.60 155.60 C 1014.10 157.70 1023.70 159.40 1033.30 160.80 Z M 1100.70 192.00 L 1106.90 192.00 C 1113.70 191.90 1120.50 191.60 1127.30 191.20 L 1103.90 210.20 L 1100.00 213.30 C 1092.10 214.10 1084.20 214.70 1076.30 215.00 L 1073.20 215.00 L 1075.20 213.20 L 1099.90 191.90 Z M 1187.10 167.20 C 1178.20 173.30 1169.20 179.80 1160.20 186.40 C 1151.40 187.30 1142.40 188.20 1133.50 188.80 C 1142.50 181.60 1151.50 174.70 1160.50 168.00 C 1169.40 167.90 1178.30 167.50 1187.10 167.20 Z M 1157.00 188.70 L 1129.40 209.50 C 1120.90 210.80 1112.30 212.00 1103.70 212.90 L 1105.10 211.70 L 1130.80 191.00 C 1139.60 190.40 1148.30 189.60 1157.00 188.70 Z M 1152.90 221.20 L 1139.60 224.20 L 1130.60 226.30 L 1148.50 214.10 L 1159.40 206.60 L 1160.10 206.40 L 1182.90 202.60 L 1157.70 218.20 Z M 1078.80 265.10 L 1061.10 270.80 C 1071.00 265.00 1080.90 259.00 1090.60 252.80 C 1097.10 251.10 1103.50 249.20 1109.90 247.40 C 1099.60 253.50 1089.20 259.40 1078.80 265.10 Z M 1044.80 282.20 L 1031.90 286.40 C 1039.00 282.90 1046.10 279.20 1053.10 275.30 L 1068.70 270.50 C 1060.80 274.60 1052.90 278.50 1044.80 282.20 Z M 442.20 184.10 C 449.10 181.60 456.20 179.30 463.40 177.20 L 472.50 174.90 C 482.30 180.50 492.00 186.30 501.50 192.40 C 491.54 194.24 481.69 196.65 472.00 199.60 C 462.20 194.20 452.30 189.00 442.20 184.10 Z M 469.40 200.40 C 459.70 203.50 450.10 207.00 440.30 211.00 C 430.40 206.20 420.40 201.50 410.30 197.20 C 419.70 192.90 429.40 188.80 439.50 185.00 C 449.70 189.90 459.60 195.00 469.40 200.40 Z M 241.20 134.10 C 234.30 133.80 227.30 133.60 220.40 133.60 C 229.60 127.60 238.80 121.50 248.20 115.50 C 255.20 115.40 262.20 115.40 269.30 115.60 L 274.50 115.80 C 265.40 121.90 256.30 128.20 247.30 134.40 Z M 190.50 134.20 L 192.20 133.20 L 218.60 116.90 C 227.20 116.40 235.70 115.90 244.30 115.60 L 216.70 133.60 C 208.00 133.70 199.20 133.90 190.50 134.20 Z M 123.30 139.20 C 114.00 143.90 104.60 148.50 95.10 153.10 C 86.10 152.90 77.10 152.60 68.00 152.00 C 77.10 148.10 86.20 143.90 95.20 139.70 C 104.60 139.70 113.90 139.50 123.30 139.20 Z M 99.40 137.70 C 108.60 133.40 117.60 129.00 126.60 124.60 C 136.50 124.00 146.40 123.30 156.20 122.40 L 127.50 137.10 C 118.20 137.40 108.80 137.70 99.40 137.70 Z M 157.70 123.90 L 161.50 121.90 L 177.80 120.40 L 185.20 119.70 L 170.40 128.10 L 156.90 135.70 L 132.30 136.90 Z M 260.70 74.30 L 278.90 71.40 C 271.30 74.70 263.70 78.30 256.20 81.90 L 236.20 85.00 C 244.30 81.30 252.50 77.70 260.70 74.30 Z M 873.90 168.10 C 866.80 171.20 859.70 173.90 852.70 176.30 C 849.50 177.40 846.20 178.50 843.00 179.40 C 833.90 173.70 824.90 167.70 816.20 161.50 C 826.30 158.93 836.17 155.52 845.70 151.30 Q 859.50 160.10 873.90 168.10 Z M 847.90 150.30 C 857.50 146.10 866.90 141.10 876.20 135.90 C 886.10 141.60 896.00 147.00 906.20 152.00 C 895.80 157.80 885.90 162.80 876.30 167.10 C 866.60 161.80 857.20 156.20 847.90 150.30 Z M 1033.80 187.50 C 1025.10 194.30 1016.60 201.20 1008.10 208.00 L 1006.00 209.70 C 995.30 207.90 984.80 205.60 974.80 203.20 L 1004.60 182.90 C 1014.30 184.70 1024.00 186.20 1033.80 187.50 Z M 1018.80 290.40 L 1007.20 293.80 C 1014.70 290.00 1022.10 285.90 1029.40 281.70 L 1044.20 277.90 C 1039.00 280.60 1033.80 283.30 1028.60 285.80 C 1025.30 287.40 1022.00 289.00 1018.80 290.40 Z M 764.90 304.30 C 758.40 302.50 751.80 300.50 745.30 298.30 L 747.60 298.80 C 756.60 300.60 765.70 302.70 774.60 304.70 L 781.40 306.60 L 778.90 306.20 Z M 696.20 299.80 C 687.10 296.70 678.10 293.40 669.10 289.70 C 677.90 289.90 686.70 290.40 695.60 291.20 C 703.80 294.50 712.20 297.60 720.60 300.40 C 712.40 300.00 704.30 299.80 696.20 299.80 Z M 601.30 255.90 C 610.40 255.80 619.40 256.10 628.20 256.80 C 637.90 262.80 647.70 268.40 657.50 273.50 C 648.80 272.90 640.10 272.50 631.40 272.50 C 621.40 267.40 611.30 261.80 601.30 255.90 Z M 526.60 47.00 C 534.40 49.70 542.10 52.60 549.80 55.80 L 536.10 52.30 C 528.30 50.20 520.30 48.10 512.30 46.20 L 503.50 43.80 L 519.00 46.00 Z M 1004.50 240.60 C 995.10 248.30 985.40 255.90 975.50 263.20 C 965.72 262.00 956.04 260.16 946.50 257.70 C 956.70 250.70 966.70 243.30 976.50 235.70 C 985.70 237.80 995.10 239.40 1004.50 240.60 Z M 978.60 234.10 C 988.00 226.80 997.30 219.30 1006.60 211.80 C 1015.70 213.40 1025.00 214.70 1034.40 215.60 C 1025.30 223.30 1016.10 231.10 1006.70 238.80 C 997.20 237.70 987.80 236.10 978.60 234.10 Z M 565.30 211.10 L 536.90 191.00 C 546.40 191.00 555.89 191.63 565.30 192.90 C 574.50 200.10 583.90 207.40 593.40 214.50 C 584.37 212.97 575.25 212.04 566.10 211.70 Z M 651.30 71.90 C 661.90 78.30 672.30 85.00 682.50 91.90 Q 670.20 91.90 658.20 90.70 C 648.00 83.90 637.70 77.40 627.10 71.20 C 635.10 71.80 643.20 72.00 651.30 71.90 Z M 408.20 43.80 C 415.40 43.90 422.70 44.30 429.90 45.00 L 436.50 45.90 C 426.63 46.62 416.83 48.13 407.20 50.40 L 400.60 50.00 C 394.20 49.70 387.70 49.70 381.30 49.90 C 390.15 47.37 399.13 45.33 408.20 43.80 Z M 699.30 261.70 C 689.80 255.40 680.40 248.70 671.20 241.70 L 688.70 249.70 C 695.90 255.60 703.40 261.20 711.00 266.60 Z M 532.10 63.30 C 540.88 68.43 549.39 74.01 557.60 80.00 L 548.60 76.10 L 535.30 70.70 C 527.87 65.60 520.16 60.92 512.20 56.70 L 517.10 58.20 Q 524.60 60.60 532.10 63.30 Z M 547.80 78.00 C 553.40 80.30 559.00 82.80 564.60 85.30 C 573.60 92.20 582.30 99.60 590.70 107.30 L 579.40 101.50 L 566.70 95.10 C 558.90 88.30 550.80 81.80 542.40 75.70 Z M 810.60 277.40 C 800.85 276.63 791.20 274.88 781.80 272.20 C 772.30 263.40 763.30 254.10 754.60 244.80 C 763.60 247.53 772.79 249.57 782.10 250.90 C 791.20 260.00 800.60 269.00 810.60 277.40 Z M 730.20 270.60 L 733.50 272.30 L 750.60 281.10 C 755.70 284.60 760.90 288.00 766.20 291.20 L 751.50 284.70 C 744.20 280.30 737.10 275.50 730.20 270.60 Z M 656.40 140.40 C 666.00 150.00 675.20 159.90 684.30 169.90 C 675.70 166.40 667.20 162.50 658.80 158.30 C 650.20 148.70 641.40 139.10 632.40 129.90 Q 644.40 135.50 656.40 140.40 Z M 689.30 225.20 C 680.50 216.20 671.90 207.00 663.70 197.80 L 673.10 203.90 C 678.10 207.10 683.20 210.30 688.40 213.40 C 696.50 222.50 704.70 231.40 713.00 239.90 L 705.50 235.30 L 699.50 231.50 Z M 674.20 202.20 L 658.70 192.30 L 643.10 174.70 L 639.30 170.50 L 632.10 162.30 L 641.70 168.30 C 646.90 171.50 652.00 174.70 657.30 177.80 L 665.00 186.80 L 672.80 195.70 L 683.80 208.30 Z M 674.30 194.40 L 666.50 185.50 L 662.80 181.10 C 671.20 186.10 679.80 190.90 688.50 195.40 L 704.00 213.10 L 704.70 213.90 L 715.90 226.60 C 707.00 222.00 698.30 217.10 689.70 211.90 C 684.50 206.10 679.40 200.30 674.30 194.40 Z M 658.60 176.30 C 649.90 166.30 641.20 156.40 632.30 146.60 C 640.70 151.30 649.10 155.80 657.60 159.90 C 666.30 169.70 674.80 179.60 683.30 189.40 C 683.80 190.00 684.40 190.60 684.90 191.30 C 676.00 186.60 667.20 181.50 658.60 176.30 Z M 652.90 172.80 L 642.80 166.60 L 627.60 157.20 C 619.40 147.90 610.90 138.60 602.10 129.40 L 609.70 133.80 L 626.70 143.50 C 635.60 153.10 644.30 163.00 652.90 172.80 Z M 621.80 153.70 C 613.40 148.70 604.90 144.00 596.40 139.60 C 588.10 130.50 579.40 121.40 570.50 112.40 C 579.00 116.60 587.40 121.10 596.00 125.90 C 604.90 135.10 613.50 144.40 621.80 153.70 Z M 626.30 158.70 L 637.80 171.80 L 641.60 176.00 L 652.60 188.40 C 644.40 183.30 636.00 178.30 627.50 173.50 L 620.50 165.80 L 611.90 156.40 L 607.50 151.70 L 600.50 143.90 C 609.10 148.60 617.70 153.50 626.30 158.70 Z M 657.40 193.80 C 665.50 202.90 673.80 212.00 682.40 221.00 C 674.60 216.20 666.70 211.40 658.60 206.90 C 649.60 197.50 640.70 187.90 631.90 178.30 C 640.60 183.30 649.10 188.60 657.40 193.80 Z M 688.00 226.80 C 695.80 234.70 703.70 242.50 711.90 249.90 C 704.70 245.80 697.40 241.70 690.10 237.80 C 681.10 229.50 672.30 220.90 663.70 212.10 Q 676.00 219.30 688.00 226.80 Z M 695.30 231.30 L 698.40 233.20 L 704.40 237.00 L 718.70 245.60 C 726.00 252.90 733.40 259.90 741.00 266.50 L 737.50 264.50 L 726.70 258.40 C 724.60 257.10 722.40 255.90 720.20 254.70 C 711.70 247.20 703.40 239.30 695.30 231.30 Z M 736.50 266.30 L 748.80 273.20 C 754.90 278.10 761.10 282.90 767.40 287.30 L 751.70 279.40 C 743.70 273.80 736.00 267.90 728.50 261.70 Z M 767.20 289.40 C 771.30 291.50 775.40 293.40 779.40 295.30 L 789.50 301.20 L 784.10 298.90 C 778.10 295.90 772.30 292.60 766.50 289.10 Z M 821.70 311.20 L 819.60 310.20 L 825.90 311.80 Z M 814.10 309.80 L 810.50 309.10 C 805.40 307.00 800.50 304.70 795.70 302.20 C 799.80 303.80 804.00 305.40 808.10 306.70 Z M 780.40 293.50 C 772.90 288.80 765.70 283.80 758.60 278.40 C 765.90 282.20 773.10 285.60 780.00 288.50 C 786.00 293.00 792.10 297.20 798.40 301.10 C 792.70 298.90 786.70 296.40 780.40 293.50 Z M 750.00 271.60 C 741.70 264.70 733.60 257.40 725.60 249.70 C 733.50 254.20 741.50 258.40 749.70 262.20 C 757.40 269.70 765.40 276.90 773.70 283.60 C 765.90 280.00 758.00 275.90 750.00 271.60 Z M 719.90 244.00 C 711.20 235.40 702.70 226.30 694.20 216.90 C 702.50 221.80 711.00 226.40 719.60 230.60 C 727.80 239.80 736.40 249.00 745.30 257.90 C 736.70 253.60 728.20 248.90 719.90 244.00 Z M 724.30 232.90 C 732.87 236.98 741.69 240.52 750.70 243.50 C 759.30 252.80 768.20 262.10 777.50 271.00 C 768.36 268.14 759.44 264.63 750.80 260.50 C 741.60 251.60 732.80 242.30 724.30 232.90 Z M 720.80 229.00 C 715.80 223.50 711.00 218.00 706.20 212.60 L 705.50 211.80 L 693.20 197.80 C 701.83 202.12 710.67 205.99 719.70 209.40 C 724.80 215.20 730.00 221.00 735.20 226.60 L 740.10 231.90 L 747.90 240.40 C 738.66 237.12 729.61 233.32 720.80 229.00 Z M 689.80 193.80 L 684.80 188.00 C 677.40 179.50 669.90 170.80 662.30 162.30 C 670.60 166.30 678.90 170.00 687.40 173.30 C 694.40 181.00 701.30 188.80 708.20 196.50 L 716.80 206.20 C 707.60 202.50 698.60 198.40 689.80 193.80 Z M 653.90 155.90 C 645.30 151.50 636.60 146.80 627.90 141.90 C 619.50 132.80 610.90 123.90 602.00 115.30 C 610.60 119.50 618.90 123.60 627.20 127.50 C 636.30 136.70 645.20 146.20 653.90 155.90 Z M 622.10 138.60 C 618.30 136.40 614.50 134.30 610.70 132.00 L 597.30 124.30 C 589.30 116.10 581.00 108.00 572.50 100.30 L 578.40 103.30 L 596.00 112.20 C 604.90 120.70 613.60 129.60 622.10 138.60 Z M 591.20 121.00 C 582.90 116.50 574.60 112.20 566.30 108.30 C 558.20 100.40 549.70 92.70 541.00 85.50 C 549.10 88.90 557.30 92.70 565.60 96.80 C 574.40 104.50 582.90 112.60 591.20 121.00 Z M 560.90 105.90 C 552.48 102.20 543.87 98.96 535.10 96.20 C 526.59 88.49 517.68 81.25 508.40 74.50 C 517.30 76.77 526.04 79.57 534.60 82.90 C 543.70 90.10 552.40 97.90 560.90 105.90 Z M 565.00 109.80 C 574.10 118.70 582.80 127.90 591.30 137.00 C 582.77 132.71 574.03 128.87 565.10 125.50 C 556.30 116.50 547.50 107.60 538.30 99.20 C 547.40 102.21 556.31 105.75 565.00 109.80 Z M 595.20 141.20 L 606.10 153.00 L 610.40 157.80 L 619.00 167.20 L 622.00 170.50 C 613.60 165.90 605.00 161.60 596.20 157.80 C 591.10 152.40 585.80 146.90 580.60 141.60 L 575.60 136.30 L 568.40 128.90 C 577.53 132.55 586.48 136.65 595.20 141.20 Z M 626.20 175.10 C 634.90 184.60 643.70 194.10 652.60 203.50 C 644.50 199.00 636.30 194.70 627.90 190.80 C 618.50 181.10 609.10 171.40 599.90 161.70 L 599.80 161.70 C 608.80 165.70 617.60 170.30 626.20 175.10 Z M 657.40 208.50 C 665.80 217.20 674.40 225.70 683.10 234.00 C 675.50 229.90 667.80 225.90 660.00 222.20 C 650.50 213.30 641.20 204.20 632.10 195.00 C 640.70 199.20 649.10 203.70 657.40 208.50 Z M 689.00 239.40 C 696.20 246.00 703.60 252.50 711.20 258.60 L 689.70 248.00 C 681.40 241.30 673.20 234.20 665.20 227.00 C 673.20 230.90 681.10 235.10 689.00 239.40 Z M 696.70 243.70 L 719.10 256.30 C 725.90 262.20 732.90 268.00 740.10 273.40 L 734.40 270.50 L 720.40 263.30 C 712.20 257.00 704.40 250.50 696.70 243.70 Z M 783.30 300.80 L 784.80 301.50 C 780.90 300.00 776.90 298.20 773.00 296.40 Z M 809.20 305.00 C 801.75 301.00 794.57 296.52 787.70 291.60 C 794.62 294.29 801.70 296.52 808.90 298.30 L 811.60 298.90 C 818.43 303.53 825.58 307.68 833.00 311.30 C 824.93 309.77 816.97 307.67 809.20 305.00 Z M 781.30 287.00 C 772.19 280.06 763.48 272.61 755.20 264.70 C 763.49 268.43 772.05 271.54 780.80 274.00 C 789.14 281.87 797.99 289.19 807.30 295.90 C 798.43 293.58 789.74 290.60 781.30 287.00 Z M 785.00 275.20 C 794.24 277.54 803.68 278.98 813.20 279.50 C 822.35 287.10 832.11 293.93 842.40 299.90 C 832.39 300.26 822.38 299.35 812.60 297.20 C 802.94 290.47 793.72 283.12 785.00 275.20 Z M 751.80 241.80 L 741.60 230.60 L 736.70 225.30 L 723.70 210.90 C 732.54 214.09 741.60 216.66 750.80 218.60 C 756.00 224.10 761.20 229.50 766.50 234.90 C 771.80 240.30 775.30 244.00 779.80 248.50 C 770.29 247.06 760.93 244.82 751.80 241.80 Z M 720.90 207.70 L 709.70 195.20 L 691.50 174.90 C 700.00 178.00 708.50 180.80 717.30 183.10 L 736.70 203.70 L 748.40 216.10 C 739.05 213.94 729.86 211.13 720.90 207.70 Z M 688.60 171.60 C 679.60 161.70 670.50 151.90 661.10 142.30 C 669.40 145.60 677.70 148.70 686.10 151.50 C 695.80 161.00 705.30 170.60 714.60 180.40 C 705.80 177.90 697.10 174.90 688.60 171.60 Z M 657.60 138.70 C 649.50 130.60 641.30 122.70 632.70 115.10 C 640.60 118.30 648.50 121.30 656.50 124.20 C 665.50 132.00 674.20 140.00 682.70 148.20 C 674.30 145.30 665.90 142.20 657.60 138.70 Z M 652.70 136.70 C 644.60 133.30 636.50 129.70 628.30 125.80 C 620.40 117.90 612.30 110.20 603.90 102.90 C 611.60 106.20 619.30 109.60 627.00 112.80 C 635.90 120.40 644.40 128.50 652.70 136.70 Z M 622.90 123.30 L 597.10 110.60 C 589.00 102.90 580.70 95.50 572.00 88.60 L 583.30 93.60 L 597.60 100.00 C 606.30 107.40 614.70 115.20 622.90 123.30 Z M 559.60 91.70 C 551.50 87.80 543.50 84.30 535.60 81.10 C 528.21 75.32 520.53 69.91 512.60 64.90 C 519.80 67.10 527.00 69.60 534.30 72.50 C 543.07 78.44 551.52 84.85 559.60 91.70 Z M 529.10 78.70 C 520.92 75.69 512.53 73.28 504.00 71.50 C 496.60 66.42 488.85 61.87 480.80 57.90 C 489.04 58.95 497.19 60.59 505.20 62.80 C 513.48 67.61 521.46 72.92 529.10 78.70 Z M 498.90 70.50 C 489.11 68.68 479.14 68.01 469.20 68.50 C 460.85 64.16 452.15 60.51 443.20 57.60 C 453.62 56.34 464.14 56.17 474.60 57.10 C 483.03 60.93 491.16 65.41 498.90 70.50 Z M 503.20 73.40 C 512.79 80.05 521.97 87.26 530.70 95.00 C 521.33 92.30 511.72 90.53 502.00 89.70 C 495.60 84.80 489.00 80.20 482.30 76.00 C 479.10 74.00 475.90 72.20 472.70 70.40 C 482.95 70.24 493.18 71.24 503.20 73.40 Z M 533.80 97.70 C 543.00 106.10 552.00 115.00 560.80 124.00 C 551.93 120.83 542.84 118.32 533.60 116.50 C 524.30 108.00 514.70 99.60 504.70 91.80 C 514.56 92.87 524.30 94.84 533.80 97.70 Z M 564.00 127.20 L 574.10 137.70 L 579.20 143.00 L 591.50 155.80 C 582.90 152.18 574.08 149.11 565.10 146.60 L 549.40 131.50 L 536.40 119.10 C 545.77 121.17 554.99 123.88 564.00 127.20 Z M 595.00 159.50 L 598.50 163.10 C 606.50 171.50 614.60 180.00 622.80 188.40 C 614.87 184.75 606.76 181.52 598.50 178.70 L 568.20 149.60 C 577.33 152.35 586.28 155.65 595.00 159.50 Z M 626.70 192.40 C 635.70 201.50 644.70 210.50 654.00 219.30 Q 643.50 214.30 632.70 210.00 Q 617.20 196.40 602.10 182.10 C 610.50 185.20 618.70 188.60 626.70 192.40 Z M 658.90 223.80 C 666.50 230.90 674.30 237.90 682.40 244.60 L 664.80 236.70 C 655.50 229.50 646.40 221.90 637.40 214.10 C 644.60 217.10 651.80 220.40 658.90 223.80 Z M 697.00 253.80 C 704.50 257.40 711.90 261.20 719.30 265.00 C 726.70 268.80 732.10 274.50 738.70 278.90 L 720.80 270.90 C 712.60 265.50 704.70 259.80 697.00 253.80 Z M 741.70 282.40 L 750.50 286.40 Q 755.40 289.40 760.40 292.10 L 763.60 293.90 L 756.50 291.20 C 748.27 287.33 740.26 283.03 732.50 278.30 Z M 862.00 319.40 L 862.00 319.40 L 866.60 319.80 L 864.80 319.80 Z M 842.20 312.80 L 840.50 312.50 C 832.24 309.02 824.31 304.80 816.80 299.90 C 823.95 301.25 831.22 301.92 838.50 301.90 L 845.60 301.70 C 854.04 306.34 862.91 310.12 872.10 313.00 C 862.16 314.08 852.13 314.02 842.20 312.80 Z M 849.30 301.40 C 859.17 300.44 868.87 298.26 878.20 294.90 C 887.24 298.91 896.65 302.02 906.30 304.20 C 896.88 308.02 887.05 310.74 877.00 312.30 C 867.39 309.70 858.10 306.04 849.30 301.40 Z M 846.20 299.70 C 835.76 293.92 825.86 287.23 816.60 279.70 L 819.90 279.70 C 828.70 279.72 837.48 278.81 846.10 277.00 C 852.56 281.45 859.27 285.53 866.20 289.20 L 875.50 293.80 C 866.04 297.06 856.18 299.04 846.20 299.70 Z M 814.00 277.60 C 804.00 269.30 794.50 260.40 785.40 251.30 C 790.88 251.93 796.39 252.27 801.90 252.30 C 805.80 252.30 809.80 252.10 813.80 251.80 C 823.33 260.25 833.35 268.13 843.80 275.40 C 833.99 277.31 823.99 278.04 814.00 277.60 Z M 783.10 249.00 C 777.90 243.80 772.90 238.60 767.90 233.50 L 754.20 219.30 C 763.37 221.00 772.67 221.90 782.00 222.00 L 797.70 237.00 C 802.00 241.10 806.70 245.50 811.70 249.90 C 802.16 250.60 792.58 250.30 783.10 249.00 Z M 751.90 216.80 L 738.20 202.30 C 732.50 196.20 726.70 190.20 720.90 184.10 C 729.72 186.34 738.67 188.01 747.70 189.10 C 756.60 197.50 765.30 205.90 774.00 214.30 L 779.90 219.90 C 770.49 219.68 761.13 218.64 751.90 216.80 Z M 718.30 181.40 C 709.20 171.80 699.90 162.20 690.40 152.90 C 699.00 155.60 707.70 158.10 716.60 160.20 C 726.20 168.90 735.80 177.80 745.20 186.80 C 736.14 185.52 727.15 183.72 718.30 181.40 Z M 687.10 149.70 Q 674.60 137.60 661.60 126.00 C 669.70 128.70 677.90 131.30 686.10 133.50 C 695.30 141.30 704.50 149.20 713.50 157.40 C 704.60 155.10 695.80 152.60 687.10 149.70 Z M 657.50 122.40 C 649.20 115.20 640.60 108.20 631.70 101.50 C 639.30 104.00 647.00 106.40 654.80 108.60 C 664.20 115.60 673.30 122.90 682.40 130.40 C 674.00 128.00 665.80 125.30 657.50 122.40 Z M 652.30 120.50 C 644.20 117.60 636.10 114.40 628.10 111.10 C 620.00 104.00 611.70 97.30 603.10 91.00 C 610.50 93.90 617.90 96.70 625.40 99.30 C 634.70 106.10 643.60 113.20 652.30 120.50 Z M 622.10 108.50 C 614.20 105.20 606.40 101.80 598.60 98.30 C 590.80 91.70 582.70 85.40 574.40 79.60 L 578.20 81.10 L 595.50 88.00 C 604.70 94.40 613.50 101.30 622.10 108.50 Z M 591.80 95.30 L 584.10 91.80 L 565.60 83.50 C 557.90 77.60 549.90 72.00 541.70 66.80 C 549.70 69.70 557.70 72.90 565.50 76.00 C 574.62 81.94 583.40 88.38 591.80 95.30 Z M 532.90 61.40 L 524.30 56.60 C 520.90 54.80 517.40 53.10 514.00 51.60 L 525.20 55.00 C 535.35 58.90 545.15 63.65 554.50 69.20 L 556.10 70.10 C 548.50 67.10 540.70 64.20 532.90 61.40 Z M 485.30 44.60 L 495.20 46.70 C 504.48 49.58 513.49 53.29 522.10 57.80 L 517.70 56.30 L 503.10 52.10 C 499.80 50.50 496.40 49.00 493.00 47.60 C 489.60 46.20 487.40 45.40 484.60 44.50 Z M 492.20 49.50 L 492.80 49.70 C 487.40 48.60 481.90 47.70 476.60 47.00 C 471.30 46.30 466.70 43.60 461.60 42.20 L 456.90 41.00 L 468.30 42.00 C 476.47 43.82 484.46 46.32 492.20 49.50 Z M 502.50 54.00 C 510.85 58.03 518.97 62.54 526.80 67.50 C 519.80 65.00 512.90 62.80 506.00 60.90 C 499.14 56.94 492.06 53.36 484.80 50.20 C 490.60 51.20 496.50 52.50 502.50 54.00 Z M 498.50 59.00 C 490.80 57.20 482.98 55.93 475.10 55.20 C 468.02 51.99 460.70 49.35 453.20 47.30 C 460.86 47.39 468.50 47.92 476.10 48.90 C 483.77 51.80 491.25 55.17 498.50 59.00 Z M 468.90 54.70 C 458.81 54.16 448.69 54.66 438.70 56.20 C 430.55 53.83 422.22 52.09 413.80 51.00 C 424.09 49.01 434.52 47.81 445.00 47.40 C 453.15 49.20 461.14 51.64 468.90 54.70 Z M 434.00 56.90 C 424.45 58.75 415.08 61.43 406.00 64.90 C 397.00 62.96 387.88 61.65 378.70 61.00 C 388.09 57.57 397.67 54.70 407.40 52.40 C 416.38 53.09 425.29 54.60 434.00 56.90 Z M 438.60 58.20 C 447.79 60.96 456.72 64.50 465.30 68.80 C 455.65 69.63 446.12 71.54 436.90 74.50 C 428.02 70.91 418.90 67.97 409.60 65.70 C 419.00 62.27 428.71 59.76 438.60 58.20 Z M 468.80 70.60 C 472.90 72.80 477.10 75.10 481.20 77.70 Q 489.90 83.10 498.30 89.40 C 488.58 88.78 478.82 89.25 469.20 90.80 C 459.77 85.07 449.95 80.03 439.80 75.70 C 449.22 72.83 458.96 71.12 468.80 70.60 Z M 501.00 91.50 C 511.00 99.10 520.60 107.40 529.90 115.90 C 520.65 114.31 511.28 113.58 501.90 113.70 C 492.30 106.00 482.25 98.89 471.80 92.40 C 481.47 91.01 491.26 90.71 501.00 91.50 Z M 532.60 118.40 C 537.90 123.20 543.00 128.10 548.00 132.90 C 553.00 137.70 556.80 141.30 561.10 145.60 C 552.15 143.24 543.02 141.64 533.80 140.80 L 518.10 127.20 C 513.70 123.30 509.10 119.50 504.40 115.70 C 513.86 115.74 523.30 116.64 532.60 118.40 Z M 564.10 148.40 L 566.40 150.60 C 575.50 159.50 584.70 168.30 594.00 177.20 C 585.19 174.27 576.21 171.90 567.10 170.10 L 554.00 158.60 L 536.40 143.10 C 545.76 144.11 555.03 145.89 564.10 148.40 Z M 597.50 180.40 C 607.30 189.70 617.20 198.90 627.20 207.80 C 618.30 204.30 609.10 201.20 599.70 198.40 C 589.70 190.00 579.90 181.40 570.10 172.80 C 579.38 174.78 588.53 177.32 597.50 180.40 Z M 631.60 211.70 C 640.30 219.30 649.10 226.80 658.00 233.90 Q 644.70 228.50 631.00 224.00 C 621.80 216.70 612.60 209.30 603.60 201.70 C 613.20 204.60 622.50 208.00 631.60 211.70 Z M 663.80 238.50 Q 676.70 248.70 690.20 258.00 C 681.50 254.50 672.70 251.20 663.90 248.20 C 654.40 241.70 645.00 234.80 635.80 227.70 C 645.20 230.90 654.50 234.60 663.80 238.50 Z M 698.40 263.40 L 705.20 267.90 C 711.30 271.70 717.40 275.30 723.50 278.60 C 715.00 275.50 706.30 272.40 697.70 269.60 C 694.10 267.50 690.50 265.40 687.00 263.20 C 681.30 259.80 675.80 256.20 670.20 252.50 C 679.70 255.90 689.10 259.60 698.40 263.40 Z M 709.60 268.20 L 719.80 272.70 L 729.10 278.60 C 732.50 280.70 735.80 282.60 739.20 284.50 L 739.00 284.50 C 729.20 279.60 719.40 274.20 709.60 268.20 Z M 887.10 314.70 L 881.80 313.50 C 891.41 311.67 900.80 308.82 909.80 305.00 C 918.60 306.72 927.54 307.59 936.50 307.60 L 938.40 307.60 C 932.26 310.15 925.99 312.36 919.60 314.20 C 908.70 314.50 897.90 314.70 887.10 314.70 Z M 913.00 303.50 C 914.90 302.70 916.70 301.90 918.60 300.90 C 927.00 296.80 935.20 292.20 943.20 287.40 C 952.41 288.72 961.70 289.39 971.00 289.40 L 973.70 289.40 C 966.40 293.90 959.00 298.00 951.40 301.80 L 943.40 305.50 C 933.22 305.96 923.03 305.29 913.00 303.50 Z M 917.70 299.20 L 909.50 302.90 C 899.66 300.91 890.04 297.92 880.80 294.00 L 886.40 291.70 C 894.70 288.10 902.80 284.10 910.70 279.80 C 920.30 282.94 930.13 285.32 940.10 286.90 C 932.80 291.30 925.30 295.40 917.70 299.20 Z M 885.60 289.90 C 883.10 291.00 880.60 291.90 878.10 292.80 C 867.82 288.18 857.95 282.69 848.60 276.40 L 854.10 275.10 C 862.44 272.79 870.57 269.78 878.40 266.10 C 887.96 271.11 897.89 275.39 908.10 278.90 C 900.80 282.90 893.30 286.60 885.60 289.90 Z M 853.60 273.20 L 846.40 274.90 C 835.97 267.70 825.99 259.89 816.50 251.50 L 822.60 250.70 C 830.26 249.56 837.80 247.68 845.10 245.10 C 854.95 252.42 865.31 259.04 876.10 264.90 C 868.85 268.30 861.32 271.08 853.60 273.20 Z M 822.30 248.80 C 819.70 249.20 817.10 249.50 814.40 249.70 C 809.20 245.10 804.10 240.30 799.10 235.50 L 784.90 221.90 C 787.90 221.90 790.90 221.80 793.90 221.50 C 800.60 221.00 807.20 220.10 813.70 219.00 L 828.90 232.10 C 833.70 236.20 838.40 240.00 843.20 243.60 C 836.41 245.98 829.41 247.72 822.30 248.80 Z M 793.70 219.50 C 790.10 219.80 786.40 220.00 782.80 220.00 L 775.40 212.90 L 751.00 189.50 L 758.70 190.30 C 765.10 190.80 771.40 191.10 777.70 191.10 L 781.50 191.10 L 792.80 200.90 C 799.00 206.40 805.40 211.90 811.80 217.40 C 805.80 218.30 799.80 219.10 793.70 219.50 Z M 758.80 188.30 C 755.40 188.00 752.00 187.70 748.60 187.20 C 739.40 178.50 730.00 169.70 720.60 161.10 L 727.30 162.50 C 735.68 164.26 744.16 165.50 752.70 166.20 C 761.60 173.80 770.50 181.40 779.20 189.00 C 772.50 189.10 765.70 188.80 758.80 188.30 Z M 727.70 160.60 L 717.60 158.40 Q 704.20 146.20 690.60 134.70 L 696.20 136.10 C 704.64 138.06 713.19 139.49 721.80 140.40 C 731.30 148.10 740.70 156.00 750.10 163.90 C 742.58 163.20 735.10 162.10 727.70 160.60 Z M 696.70 134.10 L 687.00 131.70 C 678.10 124.20 669.10 116.90 659.90 109.90 L 663.00 110.70 C 671.83 112.84 680.78 114.44 689.80 115.50 C 699.60 122.80 709.30 130.30 718.80 138.00 C 711.36 137.16 703.98 135.86 696.70 134.10 Z M 663.50 108.70 L 655.70 106.70 C 647.00 100.20 638.10 93.80 629.00 87.80 L 631.30 88.30 C 639.93 90.28 648.68 91.72 657.50 92.60 C 667.30 99.20 677.00 106.00 686.50 113.10 C 678.75 112.08 671.08 110.61 663.50 108.70 Z M 650.30 105.20 C 642.30 102.90 634.30 100.30 626.40 97.50 C 624.50 96.10 622.60 94.70 620.60 93.40 C 613.90 88.60 607.20 84.20 600.40 80.00 C 608.00 82.30 615.60 84.50 623.20 86.40 C 632.40 92.40 641.50 98.70 650.30 105.20 Z M 619.50 95.00 L 619.60 95.00 C 611.80 92.20 604.10 89.20 596.40 86.20 C 593.30 83.90 590.00 81.80 586.80 79.70 C 581.50 76.30 576.20 73.10 570.90 70.20 L 592.50 77.40 C 601.50 82.80 610.50 88.70 619.50 95.00 Z M 585.70 81.40 L 587.70 82.80 L 578.90 79.20 L 566.50 74.20 L 555.50 67.40 Q 549.30 63.80 543.20 60.80 L 558.10 65.90 C 567.59 70.53 576.81 75.70 585.70 81.40 Z M 525.90 53.10 C 521.80 51.50 517.70 50.00 513.50 48.60 C 521.60 51.00 529.50 53.70 537.30 56.70 Z M 438.80 37.90 L 448.70 38.70 L 444.70 38.70 L 438.30 37.90 Z M 444.50 40.70 C 450.09 41.56 455.64 42.73 461.10 44.20 C 463.30 44.70 465.40 45.40 467.50 46.00 C 460.08 45.40 452.64 45.20 445.20 45.40 C 440.21 44.37 435.17 43.61 430.10 43.10 C 426.60 42.70 423.00 42.40 419.50 42.20 C 427.80 41.21 436.14 40.71 444.50 40.70 Z M 400.50 52.00 L 400.70 52.00 C 391.53 54.39 382.51 57.33 373.70 60.80 C 369.40 60.60 364.90 60.60 360.40 60.70 L 348.20 61.20 C 356.80 57.70 365.30 54.70 373.70 52.10 C 382.70 51.70 391.60 51.60 400.50 52.00 Z M 360.40 62.70 C 363.30 62.60 366.20 62.60 369.00 62.70 C 359.60 66.50 350.30 70.80 341.20 75.50 L 330.00 75.30 L 328.20 75.30 L 316.80 75.60 C 325.20 71.30 333.80 67.30 342.50 63.60 Z M 370.10 64.40 L 374.10 62.80 C 383.67 63.19 393.20 64.33 402.60 66.20 L 398.50 68.00 C 390.50 71.50 382.50 75.20 374.70 79.20 C 364.94 77.48 355.09 76.31 345.20 75.70 C 353.40 71.60 361.70 67.80 370.10 64.40 Z M 399.30 69.80 L 406.20 67.00 C 415.66 69.15 424.95 72.00 434.00 75.50 L 429.80 77.10 C 421.90 80.10 414.10 83.50 406.40 87.10 C 397.05 84.13 387.53 81.69 377.90 79.80 C 385.00 76.30 392.10 72.90 399.30 69.80 Z M 430.50 78.90 L 436.90 76.70 C 446.98 80.84 456.74 85.72 466.10 91.30 C 464.60 91.60 463.00 91.80 461.50 92.20 C 453.42 93.95 445.49 96.35 437.80 99.40 C 428.50 95.03 418.95 91.23 409.20 88.00 C 416.20 84.80 423.30 81.70 430.50 78.90 Z M 461.90 94.10 L 468.70 92.90 C 479.17 99.22 489.22 106.20 498.80 113.80 L 490.60 114.30 C 483.86 114.99 477.18 116.16 470.60 117.80 C 460.88 111.42 450.76 105.67 440.30 100.60 C 447.32 97.88 454.54 95.70 461.90 94.10 Z M 490.80 116.30 L 501.20 115.70 C 506.60 120.00 511.80 124.30 516.80 128.70 L 530.50 140.50 L 524.80 140.20 C 517.33 139.93 509.84 140.17 502.40 140.90 L 486.90 129.10 C 482.30 125.70 477.60 122.40 472.90 119.30 C 478.79 117.88 484.77 116.88 490.80 116.30 Z M 524.70 142.20 L 533.00 142.70 L 552.70 160.10 L 563.30 169.40 L 556.30 168.30 C 549.20 167.40 542.10 166.80 535.10 166.50 L 504.70 142.70 C 511.35 142.18 518.03 142.02 524.70 142.20 Z M 556.00 170.30 L 566.20 172.00 C 575.70 180.40 585.30 188.80 595.10 197.10 L 588.70 195.40 C 581.25 193.53 573.71 192.06 566.10 191.00 L 543.00 172.80 L 537.80 168.60 C 543.80 168.90 549.90 169.50 556.00 170.30 Z M 588.20 197.40 L 598.80 200.20 C 607.60 207.70 616.50 215.10 625.60 222.30 Q 622.60 221.20 619.60 220.50 C 612.39 218.39 605.09 216.65 597.70 215.30 C 588.10 208.10 578.70 200.80 569.30 193.50 C 575.66 194.48 581.97 195.78 588.20 197.40 Z M 619.00 222.40 C 622.80 223.40 626.40 224.60 630.10 225.80 C 639.00 232.80 648.10 239.60 657.30 246.00 L 650.50 243.90 C 643.80 242.00 637.20 240.30 630.50 238.80 C 620.70 232.10 611.00 225.20 601.40 218.00 C 607.30 219.20 613.10 220.70 619.00 222.40 Z M 649.90 245.90 L 663.00 250.00 C 670.60 255.20 678.20 260.20 685.90 264.90 L 689.00 266.80 L 682.50 264.80 C 676.20 263.00 669.90 261.40 663.50 260.00 C 653.90 254.30 644.40 248.20 635.00 241.90 C 640.00 243.10 644.90 244.40 649.90 245.90 Z M 681.90 266.80 C 686.90 268.20 691.90 269.80 696.90 271.40 C 705.10 276.10 713.40 280.50 721.70 284.40 L 713.60 282.40 L 698.90 279.20 C 689.00 274.40 679.20 269.20 669.20 263.40 L 669.10 263.40 C 673.40 264.40 677.70 265.50 681.90 266.80 Z M 707.40 275.00 C 717.80 278.60 728.10 282.40 738.20 286.30 C 744.20 289.20 750.10 291.90 756.10 294.40 L 733.40 287.60 C 724.70 283.80 716.10 279.60 707.40 275.00 Z M 927.40 313.80 C 932.90 311.90 938.40 309.80 943.90 307.40 L 949.30 307.00 C 953.50 306.60 957.80 306.10 962.00 305.50 C 955.30 308.30 948.60 310.80 941.90 312.90 Z M 949.10 305.00 L 949.00 305.00 L 952.30 303.40 C 960.90 299.10 969.40 294.40 977.70 289.20 C 980.10 289.20 982.40 289.10 984.80 288.90 C 989.20 288.60 993.60 288.20 998.00 287.60 C 991.40 291.40 984.70 295.00 978.00 298.30 L 969.30 302.40 C 962.60 303.50 955.90 304.40 949.10 305.00 Z M 984.70 286.90 L 981.20 287.10 C 991.20 280.80 1001.00 273.90 1010.60 266.70 L 1015.50 266.50 C 1021.50 266.20 1027.40 265.70 1033.40 264.90 C 1023.30 272.00 1013.00 278.70 1002.60 284.90 C 996.60 285.80 990.60 286.50 984.70 286.90 Z M 977.20 287.20 C 966.74 287.61 956.27 287.11 945.90 285.70 C 956.20 279.30 966.20 272.50 976.00 265.30 C 984.90 266.33 993.84 266.87 1002.80 266.90 L 1007.20 266.90 Q 992.50 277.80 977.20 287.20 Z M 942.80 285.30 C 932.77 283.83 922.87 281.56 913.20 278.50 C 923.80 272.60 934.20 266.10 944.30 259.20 C 953.75 261.77 963.38 263.68 973.10 264.90 C 963.30 272.10 953.20 279.00 942.80 285.30 Z M 910.60 277.60 C 900.31 274.23 890.31 270.01 880.70 265.00 C 891.14 259.87 901.23 254.06 910.90 247.60 C 920.97 251.87 931.29 255.51 941.80 258.50 C 931.60 265.30 921.20 271.80 910.60 277.60 Z M 878.40 263.80 C 867.61 258.05 857.26 251.53 847.40 244.30 C 857.51 240.40 867.37 235.86 876.90 230.70 C 887.70 236.80 898.30 242.10 908.70 246.70 C 899.00 253.09 888.88 258.80 878.40 263.80 Z M 845.50 242.80 C 840.40 239.00 835.30 234.90 830.20 230.60 L 816.20 218.60 C 826.20 216.73 836.08 214.30 845.80 211.30 L 860.30 220.70 C 865.20 223.80 870.00 226.70 874.80 229.50 C 865.35 234.60 855.56 239.05 845.50 242.80 Z M 814.30 216.90 L 794.10 199.30 L 784.50 190.90 C 793.98 190.68 803.44 189.81 812.80 188.30 C 822.90 195.70 833.20 202.90 843.60 209.90 C 833.97 212.79 824.19 215.12 814.30 216.90 Z M 782.30 189.00 L 756.10 166.40 C 765.16 166.98 774.24 167.02 783.30 166.50 C 792.30 173.20 801.30 180.00 810.50 186.60 C 801.16 187.99 791.74 188.80 782.30 189.00 Z M 753.50 164.20 C 744.20 156.30 734.90 148.50 725.40 140.80 C 733.68 141.47 742.00 141.63 750.30 141.30 L 760.90 149.30 L 780.90 164.60 C 771.77 165.12 762.61 164.98 753.50 164.20 Z M 722.50 138.40 C 713.00 130.70 703.40 123.20 693.60 115.90 C 701.61 116.62 709.66 116.88 717.70 116.70 C 727.80 124.20 737.80 131.70 747.70 139.30 C 739.29 139.59 730.87 139.29 722.50 138.40 Z M 690.50 113.50 C 681.10 106.50 671.50 99.60 661.70 93.00 C 669.58 93.67 677.49 93.94 685.40 93.80 C 695.40 100.60 705.30 107.70 715.00 114.80 C 706.81 114.87 698.63 114.43 690.50 113.50 Z M 653.90 90.20 C 646.40 89.30 639.00 88.00 631.80 86.40 L 624.10 84.50 C 615.00 78.70 605.90 73.10 596.50 67.90 L 599.60 68.40 C 607.20 69.50 614.90 70.30 622.50 70.90 C 633.10 77.00 643.60 83.40 653.90 90.20 Z M 617.80 82.90 C 609.60 80.70 601.40 78.20 593.30 75.60 C 585.40 71.00 577.50 66.70 569.50 62.70 C 576.50 64.30 583.50 65.70 590.50 67.00 C 599.80 71.90 608.90 77.30 617.80 82.90 Z M 583.90 72.60 L 563.00 65.40 L 558.90 64.00 C 552.00 60.60 545.10 57.60 538.10 54.90 L 560.40 60.60 C 568.30 64.20 576.10 68.20 583.90 72.60 Z M 415.40 38.50 C 420.60 38.60 425.90 38.80 431.00 39.20 C 423.29 39.68 415.62 40.55 408.00 41.80 C 401.50 41.80 395.00 41.90 388.40 42.20 C 397.33 40.51 406.34 39.28 415.40 38.50 Z M 397.20 43.90 C 389.40 45.60 381.40 47.60 373.30 50.10 C 366.00 50.40 358.60 51.00 351.30 51.70 Q 362.90 48.00 374.70 45.10 Q 386.00 44.20 397.20 43.90 Z M 365.90 52.50 C 358.60 55.00 351.10 57.80 343.60 60.90 L 342.00 61.60 C 334.10 62.20 326.20 63.00 318.40 63.90 C 326.30 60.50 334.40 57.40 342.50 54.60 Q 354.20 53.30 365.90 52.50 Z M 336.30 64.10 C 328.10 67.70 319.90 71.60 311.90 75.80 C 304.00 76.20 296.20 76.90 288.40 77.70 C 296.10 73.80 304.00 70.10 311.90 66.70 C 320.00 65.70 328.10 64.80 336.30 64.10 Z M 307.60 78.10 C 298.10 83.10 288.70 88.40 279.40 93.90 C 271.40 94.10 263.30 94.70 255.30 95.30 C 264.60 90.10 273.90 85.10 283.30 80.30 C 291.40 79.40 299.50 78.60 307.60 78.10 Z M 312.40 77.80 C 317.70 77.50 323.00 77.30 328.30 77.30 L 337.50 77.30 C 327.60 82.50 317.90 88.10 308.30 93.90 L 300.10 93.60 Q 291.90 93.40 283.60 93.60 C 293.10 88.20 302.70 82.80 312.40 77.80 Z M 341.60 77.60 C 351.69 78.02 361.74 79.06 371.70 80.70 C 361.60 86.00 351.60 91.50 341.80 97.40 C 331.90 95.90 321.90 94.80 311.80 94.20 C 321.60 88.30 331.50 82.70 341.60 77.60 Z M 375.00 81.30 C 384.69 83.08 394.28 85.41 403.70 88.30 Q 388.70 95.70 374.00 103.90 C 364.41 101.39 354.70 99.39 344.90 97.90 C 354.80 92.00 364.80 86.50 375.00 81.30 Z M 406.50 89.20 C 416.28 92.36 425.86 96.10 435.20 100.40 C 425.47 104.48 415.96 109.05 406.70 114.10 C 396.90 110.50 387.00 107.30 376.80 104.60 C 386.60 99.10 396.50 94.00 406.50 89.20 Z M 437.70 101.60 C 448.16 106.57 458.28 112.22 468.00 118.50 C 458.32 121.20 448.85 124.65 439.70 128.80 C 429.79 123.69 419.61 119.11 409.20 115.10 C 418.41 110.02 427.93 105.51 437.70 101.60 Z M 470.30 120.00 C 475.50 123.30 480.60 126.90 485.70 130.70 L 499.50 141.20 C 489.56 142.24 479.70 143.97 470.00 146.40 L 455.60 137.60 C 451.10 134.90 446.60 132.40 442.00 130.00 C 451.15 125.91 460.61 122.57 470.30 120.00 Z M 501.80 142.90 C 511.80 150.70 521.90 158.50 531.70 166.30 C 522.02 166.09 512.33 166.52 502.70 167.60 C 492.70 160.80 482.60 154.30 472.40 147.80 C 482.09 145.57 491.91 143.93 501.80 142.90 Z M 534.30 168.40 L 541.80 174.30 L 562.20 190.50 C 552.88 189.34 543.49 188.88 534.10 189.10 Q 519.90 179.10 505.30 169.30 C 514.94 168.40 524.62 168.10 534.30 168.40 Z M 596.90 217.10 C 606.30 224.20 615.90 231.10 625.50 237.80 C 616.41 236.10 607.23 234.90 598.00 234.20 L 569.10 213.80 C 578.43 214.31 587.71 215.42 596.90 217.10 Z M 629.70 240.70 C 638.90 247.00 648.20 253.10 657.60 258.80 C 648.10 257.00 638.60 255.70 628.90 254.80 C 621.90 250.50 614.90 245.90 607.90 241.10 L 601.20 236.50 C 610.78 237.30 620.30 238.70 629.70 240.70 Z M 662.80 261.90 L 668.20 265.20 C 676.10 269.70 683.90 273.90 691.60 277.90 Q 677.20 275.40 662.80 274.00 C 652.70 268.90 642.70 263.30 632.70 257.20 C 642.81 258.21 652.86 259.77 662.80 261.90 Z M 698.20 281.10 C 706.80 285.30 715.30 289.10 723.80 292.50 C 714.50 291.10 705.20 290.00 696.00 289.20 C 686.50 285.40 677.10 281.10 667.80 276.50 C 677.90 277.60 688.10 279.10 698.20 281.10 Z M 706.50 282.90 L 713.10 284.40 C 719.70 285.90 726.20 287.70 732.70 289.50 C 739.20 291.30 747.10 295.60 754.30 298.20 L 748.00 296.80 Q 740.70 295.30 733.30 294.10 C 724.40 290.70 715.40 287.00 706.50 282.90 Z M 753.20 295.60 L 768.70 300.50 L 778.40 303.50 L 775.10 302.80 Q 764.10 299.70 753.20 295.60 Z M 953.70 311.90 L 950.20 312.20 C 956.70 309.90 963.20 307.30 969.80 304.30 C 975.70 303.30 981.50 302.10 987.30 300.80 C 979.70 304.10 972.10 307.00 964.30 309.70 Z M 977.00 301.00 L 978.80 300.10 C 987.10 296.10 995.20 291.60 1003.20 286.90 Q 1013.00 285.40 1022.70 283.30 C 1014.20 288.00 1005.70 292.40 997.00 296.50 C 990.40 298.20 983.70 299.70 977.00 301.00 Z M 1007.80 284.10 C 1017.90 277.90 1027.90 271.30 1037.70 264.30 C 1045.00 263.30 1052.30 262.00 1059.50 260.50 C 1049.40 267.20 1039.10 273.70 1028.70 279.80 C 1021.80 281.50 1014.80 282.90 1007.80 284.10 Z M 1041.20 261.80 C 1050.90 254.80 1060.50 247.50 1070.00 240.00 C 1078.00 239.00 1086.00 237.70 1093.90 236.20 C 1084.00 243.50 1074.10 250.60 1064.00 257.40 C 1056.50 259.10 1048.80 260.60 1041.20 261.80 Z M 1036.90 262.40 C 1029.70 263.40 1022.60 264.20 1015.40 264.50 L 1013.40 264.50 C 1022.90 257.40 1032.10 249.90 1041.30 242.30 L 1048.60 242.00 C 1054.40 241.60 1060.30 241.10 1066.20 240.40 C 1056.50 248.00 1046.80 255.40 1036.90 262.40 Z M 1009.90 264.80 C 999.38 265.12 988.86 264.69 978.40 263.50 C 988.20 256.20 997.90 248.60 1007.30 240.90 C 1016.46 241.94 1025.68 242.47 1034.90 242.50 L 1038.10 242.50 C 1028.80 250.10 1019.50 257.60 1009.90 264.80 Z M 943.90 257.00 C 933.39 254.08 923.07 250.50 913.00 246.30 Q 924.30 238.80 935.50 230.70 L 941.90 226.10 Q 957.70 231.40 974.00 235.10 C 964.10 242.70 954.20 250.00 943.90 257.00 Z M 934.30 229.10 C 926.40 234.70 918.60 240.20 910.70 245.40 C 899.85 240.68 889.27 235.38 879.00 229.50 L 885.60 226.00 C 891.10 223.00 896.80 220.00 902.60 217.10 L 908.50 214.10 C 918.70 218.10 929.00 221.90 939.50 225.40 Z M 901.70 215.30 C 895.90 218.20 890.20 221.30 884.60 224.30 L 876.90 228.40 C 871.80 225.40 866.60 222.30 861.30 219.00 L 848.20 210.50 C 857.70 207.50 867.10 204.00 876.20 200.20 C 881.40 202.80 886.70 205.20 892.20 207.40 L 906.00 213.10 Z M 846.10 209.10 C 835.80 202.20 825.60 195.10 815.60 187.90 C 824.74 186.28 833.78 184.17 842.70 181.60 C 852.80 187.90 863.10 193.70 873.80 199.00 C 864.70 202.80 855.50 206.20 846.10 209.10 Z M 813.30 186.20 C 804.20 179.60 795.20 172.90 786.40 166.20 C 793.07 165.68 799.72 164.81 806.30 163.60 C 808.70 163.20 811.20 162.70 813.60 162.10 C 822.40 168.40 831.30 174.40 840.40 180.20 C 831.51 182.78 822.45 184.78 813.30 186.20 Z M 805.90 161.70 C 798.62 163.00 791.28 163.90 783.90 164.40 L 762.10 147.80 L 753.40 141.10 C 762.56 140.56 771.68 139.42 780.70 137.70 C 790.80 145.40 801.00 153.10 811.40 160.60 Z M 750.90 139.20 Q 736.00 127.80 720.90 116.70 C 730.55 116.32 740.17 115.35 749.70 113.80 L 768.50 128.30 L 778.50 136.00 C 769.38 137.69 760.16 138.76 750.90 139.20 Z M 718.30 114.70 C 708.60 107.60 698.80 100.60 688.80 93.80 C 698.81 93.46 708.79 92.59 718.70 91.20 C 725.50 95.90 732.30 100.80 739.10 105.80 L 747.50 112.10 C 737.83 113.60 728.08 114.47 718.30 114.70 Z M 686.00 91.80 C 675.90 84.90 665.60 78.30 655.10 71.90 C 665.30 71.70 675.50 71.10 685.80 70.10 C 695.90 76.10 706.10 82.60 716.30 89.50 C 706.25 90.84 696.14 91.61 686.00 91.80 Z M 651.80 69.90 C 642.60 64.40 633.10 59.10 623.50 54.10 C 633.40 53.90 643.40 53.30 653.40 52.40 C 663.20 57.30 673.00 62.60 682.80 68.40 C 672.40 69.40 662.10 69.90 651.80 69.90 Z M 647.90 69.90 C 639.60 69.90 631.40 69.60 623.10 68.90 C 613.70 63.60 604.20 58.60 594.50 53.90 C 602.80 54.20 611.00 54.30 619.30 54.20 C 629.00 59.10 638.60 64.40 647.90 69.90 Z M 618.30 68.50 C 612.20 68.00 606.00 67.30 599.80 66.40 L 591.20 65.00 C 582.30 60.30 573.30 55.80 564.00 51.70 L 568.30 52.20 C 575.30 52.80 582.40 53.30 589.40 53.70 C 599.20 58.30 608.80 63.30 618.30 68.50 Z M 584.60 63.80 C 576.70 62.30 568.90 60.60 561.10 58.70 C 552.90 54.90 544.70 51.50 536.40 48.40 L 557.20 51.00 C 566.60 54.90 575.70 59.20 584.60 63.80 Z M 374.40 43.10 L 373.50 43.10 L 376.10 42.60 Z M 361.90 46.40 C 355.30 48.20 348.60 50.30 342.10 52.60 L 330.40 54.00 C 338.50 51.50 346.70 49.20 355.00 47.20 Z M 333.80 55.60 C 326.20 58.40 318.70 61.50 311.30 64.70 L 294.40 67.00 C 302.80 63.60 311.30 60.40 319.90 57.50 Z M 304.90 67.60 C 297.50 71.00 290.00 74.60 282.70 78.30 L 262.90 80.90 C 270.80 77.20 278.80 73.60 286.80 70.20 Z M 277.60 81.00 C 268.50 85.70 259.50 90.70 250.50 95.80 Q 239.50 96.80 228.60 98.20 Q 242.60 90.70 256.80 83.80 C 263.70 82.80 270.70 81.80 277.60 81.00 Z M 246.30 98.20 C 236.80 103.70 227.40 109.30 218.00 115.00 C 210.10 115.50 202.20 116.20 194.30 116.90 C 204.00 111.50 213.80 106.10 223.70 100.80 C 231.20 99.80 238.70 99.00 246.30 98.20 Z M 251.10 97.70 C 259.30 97.00 267.60 96.40 275.80 96.00 C 266.30 101.70 256.90 107.60 247.60 113.60 C 239.10 113.70 230.70 114.20 222.30 114.70 C 231.90 108.90 241.50 103.20 251.10 97.70 Z M 280.00 95.80 C 286.70 95.60 293.40 95.60 300.10 95.70 L 305.20 95.90 C 295.80 101.70 286.50 107.80 277.30 113.90 L 269.30 113.60 C 263.30 113.40 257.40 113.40 251.40 113.50 C 260.80 107.50 270.40 101.50 280.00 95.80 Z M 308.80 96.10 C 319.00 96.60 329.10 97.60 339.10 99.00 C 329.20 104.90 319.50 111.00 309.90 117.20 C 300.30 115.80 290.60 114.70 280.60 114.10 Q 294.50 104.80 308.80 96.10 Z M 342.20 99.50 C 352.10 101.00 361.90 102.90 371.50 105.30 C 361.40 111.10 351.40 117.20 341.50 123.40 C 332.10 121.20 322.60 119.30 312.90 117.70 C 322.50 111.50 332.30 105.30 342.20 99.50 Z M 374.30 106.00 C 384.50 108.70 394.50 111.80 404.40 115.40 C 397.30 119.30 390.40 123.30 383.60 127.20 L 381.30 128.50 L 374.60 132.40 C 364.70 129.30 354.60 126.50 344.20 124.00 C 354.10 117.80 364.10 111.80 374.30 106.00 Z M 382.30 130.30 L 384.60 129.00 C 391.90 124.70 399.30 120.40 406.80 116.30 C 417.23 120.27 427.44 124.77 437.40 129.80 C 431.30 132.50 425.30 135.40 419.20 138.40 L 412.10 141.70 L 408.00 143.70 C 397.90 140.00 387.70 136.50 377.20 133.20 Z M 413.00 143.50 L 420.00 140.20 C 426.60 137.00 433.10 133.90 439.70 131.00 C 444.70 133.60 449.70 136.40 454.60 139.30 L 467.30 147.00 C 457.80 149.50 448.30 152.40 439.00 155.80 C 434.10 153.60 429.00 151.60 423.90 149.60 L 410.60 144.70 Z M 469.60 148.50 C 479.70 154.80 489.70 161.30 499.60 167.90 C 490.58 169.01 481.63 170.64 472.80 172.80 C 462.60 167.10 452.30 161.80 441.70 157.00 C 450.85 153.68 460.16 150.85 469.60 148.50 Z M 502.20 169.60 C 511.80 176.10 521.30 182.60 530.70 189.20 C 521.89 189.55 513.10 190.45 504.40 191.90 C 494.90 185.80 485.20 179.80 475.30 174.20 C 484.17 172.15 493.15 170.61 502.20 169.60 Z M 533.50 191.10 L 562.40 211.50 C 553.39 211.32 544.37 211.69 535.40 212.60 C 526.00 206.20 516.60 199.80 507.00 193.60 C 515.77 192.16 524.62 191.33 533.50 191.10 Z M 565.40 213.60 L 594.10 233.90 C 584.97 233.40 575.83 233.40 566.70 233.90 C 559.20 228.90 551.80 223.80 544.50 218.80 L 538.00 214.30 C 547.11 213.52 556.26 213.28 565.40 213.60 Z M 597.30 236.10 C 600.50 238.30 603.60 240.60 606.80 242.70 C 612.70 246.80 618.70 250.80 624.60 254.50 C 615.78 253.88 606.94 253.71 598.10 254.00 C 590.90 249.70 583.80 245.20 576.70 240.50 L 569.50 235.80 C 578.76 235.35 588.05 235.45 597.30 236.10 Z M 662.20 275.90 C 671.30 280.60 680.40 284.80 689.60 288.70 C 681.00 288.10 672.50 287.70 664.10 287.60 C 654.50 283.60 645.00 279.20 635.50 274.50 C 644.40 274.60 653.30 275.10 662.20 275.90 Z M 663.70 289.60 C 672.50 293.30 681.30 296.70 690.20 299.80 C 681.20 300.00 672.30 300.30 663.40 300.90 Q 649.60 296.10 635.80 290.40 C 645.10 289.80 654.40 289.60 663.70 289.60 Z M 702.70 291.90 C 712.60 292.90 722.60 294.30 732.70 296.00 C 739.50 298.50 746.20 300.80 752.90 302.90 Q 740.60 301.60 728.60 300.80 C 719.90 298.10 711.30 295.20 702.70 291.90 Z M 997.70 298.40 L 1004.80 296.50 C 998.20 299.20 991.70 301.70 985.10 303.90 C 989.40 302.20 993.60 300.30 997.70 298.40 Z M 1035.50 278.10 C 1045.40 272.20 1055.20 265.90 1064.80 259.30 C 1071.30 257.90 1077.70 256.30 1084.10 254.60 C 1073.60 261.10 1063.00 267.50 1052.30 273.40 C 1046.70 275.10 1041.10 276.70 1035.50 278.10 Z M 1069.30 256.20 C 1079.10 249.40 1088.80 242.40 1098.40 235.30 C 1105.90 233.90 1113.30 232.30 1120.70 230.60 C 1110.50 237.50 1100.20 244.40 1089.80 251.00 C 1083.00 252.80 1076.20 254.60 1069.30 256.20 Z M 1102.20 232.60 L 1129.10 212.30 L 1130.30 211.40 L 1154.70 207.40 L 1147.30 212.40 L 1125.20 227.60 Z M 1097.60 233.50 C 1089.50 235.00 1081.30 236.40 1073.10 237.60 C 1082.40 230.20 1091.70 222.70 1100.80 215.20 C 1109.30 214.40 1117.70 213.30 1126.10 212.00 C 1116.70 219.20 1107.20 226.40 1097.60 233.50 Z M 1069.20 238.10 C 1062.30 239.00 1055.40 239.70 1048.40 240.10 L 1043.80 240.30 C 1052.90 232.70 1061.90 224.90 1070.80 217.20 L 1076.40 217.00 C 1083.30 216.80 1090.30 216.30 1097.20 215.60 C 1088.00 223.10 1078.60 230.70 1069.20 238.10 Z M 1040.50 240.40 C 1030.15 240.67 1019.79 240.24 1009.50 239.10 L 1037.20 215.90 C 1046.80 216.70 1056.40 217.20 1066.00 217.20 L 1067.70 217.20 C 1058.70 225.00 1049.70 232.80 1040.50 240.40 Z M 1008.60 210.20 L 1009.40 209.60 C 1018.30 202.40 1027.40 195.00 1036.60 187.90 C 1045.80 189.00 1055.00 190.00 1064.10 190.60 C 1054.80 198.30 1045.60 206.10 1036.50 213.80 Q 1022.40 212.50 1008.60 210.20 Z M 1003.90 211.40 C 994.70 218.80 985.50 226.20 976.00 233.50 C 965.10 231.10 954.40 228.10 943.90 224.70 L 972.60 204.70 C 982.60 207.20 993.10 209.50 1003.90 211.40 Z M 941.50 223.90 Q 925.90 218.80 910.90 212.80 C 921.10 207.50 931.20 201.80 941.10 196.00 C 950.10 198.70 959.80 201.50 970.00 204.10 C 960.50 210.60 950.90 217.20 941.50 223.90 Z M 908.40 211.90 L 892.90 205.60 C 888.10 203.60 883.30 201.40 878.60 199.20 C 889.00 194.70 899.10 189.80 908.90 184.70 C 914.00 186.80 919.20 188.70 924.50 190.50 C 929.80 192.30 933.60 193.60 938.50 195.20 C 928.70 200.90 918.60 206.60 908.40 211.90 Z M 876.20 198.00 C 865.60 192.80 855.30 187.00 845.30 180.80 L 853.40 178.20 C 860.90 175.60 868.40 172.70 876.20 169.30 C 886.05 174.62 896.16 179.43 906.50 183.70 C 896.70 188.80 886.60 193.60 876.20 198.00 Z M 814.00 160.00 C 803.60 152.50 793.40 144.90 783.30 137.10 L 788.80 135.90 C 796.85 134.02 804.79 131.72 812.60 129.00 C 822.90 136.20 833.20 143.30 843.70 150.00 C 834.09 154.15 824.16 157.50 814.00 160.00 Z M 781.20 135.50 L 769.70 126.70 L 752.40 113.40 L 756.10 112.70 C 764.40 111.20 772.70 109.20 781.20 106.80 L 794.90 116.40 L 810.60 127.60 C 800.98 130.87 791.16 133.50 781.20 135.50 Z M 755.80 110.70 L 750.20 111.70 L 740.30 104.20 C 734.10 99.60 727.90 95.10 721.60 90.80 C 730.80 89.40 740.20 87.60 749.80 85.30 C 757.50 90.30 765.20 95.60 773.10 101.00 L 779.10 105.30 C 771.20 107.50 763.40 109.30 755.80 110.70 Z M 719.20 89.10 C 709.20 82.20 699.10 75.80 689.10 69.70 C 698.40 68.70 707.80 67.30 717.40 65.50 Q 732.30 74.10 747.40 83.80 C 737.80 86.10 728.40 87.80 719.20 89.10 Z M 686.20 68.00 C 676.50 62.30 666.80 57.00 657.10 52.00 C 666.50 51.10 675.80 49.90 685.20 48.40 C 695.00 53.20 704.80 58.40 714.70 64.00 C 705.10 65.70 695.60 67.10 686.20 68.00 Z M 653.80 50.30 C 644.50 45.70 635.20 41.40 625.90 37.50 C 635.20 36.50 644.40 35.40 653.60 34.10 C 663.10 38.00 672.60 42.20 682.10 46.90 C 672.60 48.30 663.20 49.50 653.80 50.30 Z M 688.60 47.90 C 698.10 46.30 707.60 44.50 717.20 42.30 C 726.90 46.90 736.60 51.80 746.50 57.00 C 736.80 59.50 727.20 61.70 717.70 63.40 C 708.00 57.90 698.30 52.70 688.60 47.90 Z M 685.60 46.30 C 676.20 41.70 666.80 37.40 657.50 33.50 C 666.90 32.10 676.30 30.40 685.70 28.60 C 695.10 32.30 704.60 36.50 714.20 40.90 C 704.60 43.00 695.10 44.80 685.60 46.30 Z M 653.90 32.00 C 645.00 28.30 636.00 24.90 627.10 21.80 C 636.40 20.50 645.70 18.90 654.90 17.20 C 664.00 20.20 673.10 23.60 682.30 27.20 C 672.80 29.00 663.40 30.60 653.90 32.00 Z M 650.00 32.60 C 640.70 33.90 631.40 35.00 622.00 35.80 C 613.20 32.20 604.50 28.90 595.60 25.90 C 604.80 24.90 613.80 23.80 622.70 22.50 C 631.90 25.60 640.90 28.90 650.00 32.60 Z M 617.70 36.20 C 608.20 37.10 598.60 37.70 589.00 38.00 C 581.00 34.70 572.80 31.60 564.40 28.80 C 573.40 28.10 582.20 27.30 590.90 26.40 C 599.90 29.40 608.80 32.70 617.70 36.20 Z M 621.70 37.90 C 631.10 41.80 640.50 46.00 649.90 50.70 C 639.80 51.50 629.80 52.00 619.80 52.20 Q 606.80 45.60 593.40 39.90 C 602.80 39.40 612.30 38.70 621.70 37.90 Z M 615.40 52.20 C 606.90 52.30 598.40 52.10 589.90 51.70 Q 577.00 45.70 563.80 40.60 C 572.10 40.50 580.40 40.40 588.70 40.10 C 597.70 43.80 606.60 47.90 615.40 52.20 Z M 584.50 51.40 C 579.10 51.10 573.80 50.70 568.50 50.20 L 557.80 49.00 C 549.90 45.70 541.90 42.70 533.70 39.90 L 536.60 39.90 C 543.80 40.20 551.00 40.40 558.10 40.40 C 567.00 43.90 575.80 47.50 584.50 51.40 Z M 550.30 48.20 L 527.10 45.10 C 520.00 42.70 512.90 40.60 505.70 38.70 L 513.40 39.00 L 526.30 39.60 C 534.50 42.20 542.50 45.00 550.30 48.20 Z M 515.20 43.40 C 504.30 41.90 493.30 40.40 482.20 39.10 L 473.00 37.40 L 495.50 38.20 C 502.10 39.80 508.70 41.50 515.20 43.40 Z M 457.20 35.10 L 444.90 33.60 L 465.10 32.80 C 471.40 33.60 477.50 34.60 483.70 35.80 C 474.90 35.50 466.10 35.20 457.20 35.10 Z M 439.20 35.00 L 432.90 35.00 L 424.40 34.60 L 431.30 34.20 Z M 354.60 45.20 L 351.00 45.70 L 360.70 43.80 Z M 339.00 49.30 C 332.40 51.20 325.90 53.30 319.40 55.50 L 306.10 57.50 Q 317.40 53.90 328.90 50.90 Z M 309.50 59.00 C 301.70 61.90 293.90 65.00 286.20 68.20 L 268.90 71.00 Q 281.50 65.90 294.40 61.40 Z M 229.50 88.10 L 250.30 84.80 Q 236.50 91.60 223.00 98.90 L 201.30 101.70 C 210.70 97.10 220.10 92.50 229.50 88.10 Z M 201.00 103.80 L 218.10 101.50 L 189.40 117.30 L 177.60 118.40 L 166.20 119.50 C 176.10 114.40 185.90 109.40 195.80 104.50 Z M 171.40 129.80 L 190.00 119.30 L 214.30 117.30 L 191.10 131.50 L 186.50 134.30 L 161.40 135.50 Z M 277.90 115.90 C 287.90 116.50 297.70 117.50 307.40 118.90 C 298.00 125.00 288.70 131.30 279.50 137.50 C 269.60 136.20 260.00 135.20 250.50 134.60 Z M 310.40 119.30 C 320.10 120.80 329.70 122.70 339.10 124.90 L 311.40 142.70 C 301.50 140.80 291.90 139.20 282.50 137.90 Z M 308.90 144.30 C 299.80 150.20 290.50 156.30 281.10 162.20 C 271.60 160.60 262.00 159.30 252.50 158.10 L 271.70 145.20 L 280.00 139.60 C 289.40 140.80 299.10 142.40 308.90 144.30 Z M 311.10 145.30 L 311.80 144.80 C 321.50 146.80 331.40 149.00 341.60 151.50 L 312.70 168.00 C 303.20 166.10 293.60 164.30 284.10 162.70 Z M 314.20 143.30 C 323.30 137.30 332.50 131.40 341.90 125.50 C 352.20 128.00 362.30 130.80 372.30 133.80 L 344.10 150.10 C 333.90 147.50 323.90 145.20 314.20 143.30 Z M 374.90 134.60 C 385.30 137.80 395.50 141.30 405.50 144.90 C 395.80 149.50 386.10 154.30 376.40 159.10 C 366.40 156.00 356.50 153.30 346.80 150.80 Z M 408.10 145.90 L 423.20 151.50 C 427.60 153.20 432.00 154.90 436.30 156.80 C 426.40 160.50 416.50 164.70 406.90 169.00 C 402.00 167.20 397.10 165.50 392.10 163.90 L 379.30 159.90 C 388.90 155.10 398.50 150.50 408.10 145.90 Z M 439.00 158.00 C 449.50 162.70 459.80 167.90 469.90 173.50 L 462.90 175.30 C 455.00 177.50 447.20 180.10 439.60 182.90 C 429.80 178.30 419.80 173.90 409.50 170.00 C 419.20 165.70 429.00 161.60 439.00 158.00 Z M 504.00 194.00 C 513.60 200.20 523.00 206.50 532.30 212.90 L 528.50 213.30 C 520.20 214.40 511.80 215.90 503.30 217.90 C 493.70 212.10 484.10 206.40 474.50 201.00 C 484.19 198.09 494.04 195.75 504.00 194.00 Z M 528.70 215.30 L 534.90 214.60 L 543.40 220.40 L 563.40 234.10 C 553.95 234.75 544.54 235.89 535.20 237.50 L 528.70 233.60 L 505.80 219.40 C 513.50 217.70 521.20 216.30 528.70 215.30 Z M 566.20 235.90 L 575.60 242.20 C 581.90 246.30 588.10 250.30 594.40 254.10 C 585.30 254.40 576.10 255.20 566.80 256.40 C 558.80 251.90 550.80 247.20 542.70 242.20 L 537.70 239.10 C 547.14 237.55 556.65 236.48 566.20 235.90 Z M 597.50 256.00 C 607.40 261.90 617.20 267.40 627.10 272.50 C 617.90 272.60 608.70 273.00 599.50 273.80 C 589.60 268.90 579.70 263.70 569.70 258.10 C 578.92 256.91 588.20 256.21 597.50 256.00 Z M 631.00 274.50 C 640.30 279.20 649.60 283.60 659.00 287.60 C 649.90 287.70 640.80 288.00 631.70 288.60 C 622.20 284.60 612.60 280.20 603.00 275.50 C 612.30 274.80 621.70 274.50 631.00 274.50 Z M 627.40 289.00 C 618.00 289.70 608.70 290.80 599.30 292.30 C 589.80 288.30 580.20 284.10 570.40 279.60 C 580.00 278.00 589.60 276.70 599.10 275.90 C 608.60 280.60 618.00 284.90 627.40 289.00 Z M 631.40 290.70 C 640.40 294.50 649.40 298.00 658.50 301.30 C 649.20 302.00 640.00 303.10 630.80 304.30 C 621.50 301.10 612.30 297.60 602.90 293.80 C 612.40 292.40 621.90 291.40 631.40 290.70 Z M 663.20 303.00 C 671.70 305.90 680.20 308.70 688.80 311.20 C 679.60 312.00 670.50 313.00 661.50 314.30 C 652.70 311.70 643.80 308.90 634.90 305.80 C 644.30 304.60 653.70 303.60 663.20 303.00 Z M 668.40 302.60 C 677.50 302.10 686.60 301.80 695.90 301.80 C 703.90 304.50 712.10 307.00 720.20 309.20 Q 707.10 309.60 694.40 310.70 C 685.70 308.30 677.00 305.60 668.40 302.60 Z M 702.40 301.80 C 710.90 301.90 719.50 302.30 728.20 302.80 C 735.40 305.00 742.60 307.00 749.90 308.80 C 742.20 308.80 734.70 308.80 727.20 309.00 C 718.90 306.90 710.60 304.50 702.40 301.80 Z M 737.40 303.40 C 746.30 304.20 755.40 305.10 764.50 306.20 C 769.10 307.50 773.70 308.60 778.30 309.70 C 771.90 309.40 765.60 309.10 759.30 309.00 C 752.00 307.30 744.70 305.50 737.40 303.40 Z M 787.30 309.50 L 794.50 310.60 L 792.40 310.60 Z M 1019.50 292.30 L 1027.60 289.80 C 1020.20 293.00 1012.60 295.90 1005.00 298.60 Z M 1116.10 243.50 L 1096.30 249.20 Q 1111.30 239.50 1126.00 229.40 L 1140.10 226.20 L 1147.60 224.40 C 1137.30 230.80 1127.00 237.20 1116.70 243.40 Z M 1163.30 203.90 C 1172.50 197.60 1181.80 191.30 1191.20 185.10 C 1199.50 184.20 1207.90 183.30 1216.30 182.70 C 1206.50 188.30 1196.90 194.10 1187.40 199.90 C 1179.30 201.10 1171.30 202.50 1163.30 203.90 Z M 1158.60 204.70 L 1133.60 208.80 L 1160.90 188.30 L 1178.50 186.40 L 1186.90 185.50 Z M 1073.90 211.80 L 1070.00 215.20 C 1059.80 215.30 1049.50 214.90 1039.30 214.00 C 1048.40 206.30 1057.60 198.50 1067.00 190.80 C 1077.10 191.50 1087.10 191.90 1096.90 192.00 C 1089.10 198.60 1081.50 205.20 1073.90 211.80 Z M 1069.30 189.00 C 1078.60 181.40 1088.00 174.00 1097.60 166.90 L 1097.70 166.90 C 1107.00 167.40 1116.50 167.70 1126.30 167.90 C 1117.30 175.00 1108.20 182.50 1099.20 190.10 C 1089.40 190.00 1079.40 189.70 1069.30 189.00 Z M 1066.40 188.80 C 1057.20 188.10 1048.00 187.30 1038.80 186.10 C 1048.20 178.80 1057.80 171.60 1067.40 164.80 L 1067.40 164.80 C 1076.30 165.60 1085.40 166.20 1094.60 166.70 C 1085.10 173.70 1075.60 181.20 1066.40 188.80 Z M 1036.00 185.80 C 1026.30 184.50 1016.60 183.00 1007.00 181.30 C 1016.50 174.70 1026.40 168.00 1036.10 161.40 L 1036.20 161.40 C 1045.50 162.70 1054.90 163.70 1064.40 164.60 C 1054.80 171.30 1045.40 178.40 1036.00 185.80 Z M 1001.80 182.30 C 992.00 189.00 982.10 195.70 972.20 202.60 C 962.00 200.00 952.40 197.30 943.40 194.60 C 953.60 188.50 963.60 182.30 973.30 176.10 C 982.70 178.40 992.20 180.50 1001.80 182.30 Z M 940.80 193.80 C 935.30 192.10 930.00 190.30 925.10 188.60 C 920.20 186.90 915.80 185.30 911.20 183.50 C 921.50 178.10 931.50 172.40 941.10 166.70 C 946.20 168.50 951.40 170.20 956.60 171.60 C 961.80 173.00 965.90 174.20 970.60 175.40 C 961.00 181.60 951.00 187.80 940.80 193.80 Z M 908.80 182.50 C 898.30 178.20 888.30 173.40 878.50 168.30 C 888.10 163.90 898.00 158.90 908.40 153.10 C 918.28 157.85 928.39 162.08 938.70 165.80 C 929.10 171.50 919.10 177.10 908.80 182.50 Z M 910.60 151.90 C 919.60 146.70 929.10 141.00 939.30 134.50 L 939.60 134.20 Q 954.70 141.10 970.50 146.50 C 961.10 152.30 951.20 158.40 940.90 164.50 Q 925.50 159.00 910.60 151.90 Z M 874.20 134.70 C 864.90 139.90 855.50 144.80 845.90 149.10 C 835.50 142.40 825.20 135.40 814.90 128.20 C 824.30 124.90 833.90 120.90 844.00 116.20 C 853.90 122.50 864.00 128.70 874.20 134.70 Z M 813.00 126.80 L 796.00 114.80 L 783.70 106.00 C 793.10 103.30 802.70 100.00 812.80 96.10 L 826.90 105.20 L 842.10 114.90 C 832.61 119.35 822.89 123.33 813.00 126.80 Z M 781.60 104.60 C 779.20 102.80 776.70 101.10 774.20 99.40 C 766.90 94.30 759.60 89.40 752.40 84.70 C 761.80 82.40 771.40 79.70 781.20 76.50 C 788.80 81.10 796.50 85.80 804.30 90.70 L 810.70 94.70 C 800.60 98.60 791.00 101.90 781.60 104.60 Z M 750.10 83.20 C 740.10 76.70 730.20 70.70 720.40 65.00 C 729.80 63.20 739.40 61.00 749.10 58.40 C 758.90 63.60 768.80 69.20 778.90 75.20 C 769.10 78.30 759.50 81.00 750.10 83.20 Z M 624.90 8.30 C 633.60 10.60 642.20 13.10 650.90 15.90 C 641.70 17.60 632.30 19.10 622.90 20.40 C 614.00 17.50 605.10 14.80 596.10 12.30 C 605.60 11.00 615.00 9.60 624.50 8.00 C 624.60 8.20 624.70 8.30 624.90 8.30 Z M 593.70 13.80 C 602.00 16.00 610.20 18.40 618.40 21.10 Q 604.90 22.90 591.10 24.40 C 582.00 21.40 572.90 18.80 563.80 16.40 C 573.50 15.30 583.30 14.10 593.00 12.80 C 593.03 13.24 593.30 13.62 593.70 13.80 Z M 562.50 18.10 C 570.40 20.20 578.30 22.40 586.10 24.90 C 577.40 25.80 568.50 26.60 559.40 27.20 C 550.50 24.40 541.40 21.80 532.20 19.70 L 561.90 16.60 L 561.90 16.90 C 561.76 17.39 562.02 17.91 562.50 18.10 Z M 531.30 21.50 C 539.00 23.30 546.50 25.30 553.90 27.60 L 528.80 29.00 C 519.80 26.50 510.70 24.30 501.40 22.50 C 511.20 21.70 521.10 20.80 530.90 19.80 C 530.80 20.00 530.60 20.10 530.60 20.30 C 530.51 20.55 530.53 20.83 530.67 21.07 C 530.80 21.30 531.03 21.46 531.30 21.50 Z M 559.10 29.20 C 567.60 31.90 576.00 35.00 584.10 38.20 C 575.60 38.50 567.10 38.60 558.50 38.60 C 550.70 35.70 542.80 33.00 534.80 30.70 Q 547.30 30.10 559.10 29.20 Z M 552.40 38.50 C 547.20 38.40 541.90 38.30 536.70 38.00 L 526.70 37.60 C 519.70 35.40 512.70 33.50 505.50 31.70 L 505.60 31.70 L 528.60 31.00 C 536.60 33.20 544.60 35.70 552.40 38.50 Z M 518.50 37.30 L 513.50 37.00 L 495.80 36.30 C 489.40 34.80 482.90 33.50 476.50 32.50 L 497.40 31.90 C 504.60 33.50 511.60 35.30 518.50 37.30 Z M 406.30 32.50 L 417.00 33.20 L 404.70 34.10 L 386.90 33.90 L 405.40 31.70 C 405.49 32.14 405.86 32.46 406.30 32.50 Z M 305.80 54.60 L 312.00 53.60 C 306.00 55.40 299.90 57.40 293.90 59.50 L 278.90 62.00 L 263.60 64.50 C 270.40 62.30 277.30 60.10 284.20 58.10 Z M 279.20 63.90 L 283.30 63.30 C 275.50 66.10 267.80 69.20 260.10 72.40 L 256.70 73.00 L 227.60 77.60 C 235.80 74.30 244.00 71.20 252.30 68.30 Z M 219.70 80.80 C 230.60 79.20 241.50 77.40 252.30 75.70 Q 240.60 80.80 228.90 86.20 L 228.80 86.20 C 217.80 88.00 206.60 89.80 195.30 91.40 L 213.40 83.40 Z M 222.30 89.30 C 213.30 93.60 204.20 98.00 195.20 102.50 C 184.60 103.90 174.00 105.30 163.30 106.50 L 189.00 94.30 C 200.20 92.80 211.30 91.00 222.30 89.30 Z M 189.70 105.30 C 180.10 110.10 170.60 115.00 160.90 120.00 C 151.10 120.90 141.20 121.70 131.20 122.30 L 138.90 118.50 L 158.00 109.10 C 168.60 108.00 179.20 106.70 189.70 105.30 Z M 63.90 153.80 C 73.00 154.40 82.10 154.80 91.10 155.00 C 82.40 159.10 73.60 163.20 64.70 167.10 L 64.40 167.30 C 55.40 166.50 46.40 165.60 37.40 164.40 C 46.30 161.10 55.10 157.50 63.90 153.80 Z M 99.60 153.20 C 109.10 148.50 118.60 143.80 128.00 139.00 L 153.00 137.90 C 143.90 143.10 134.60 148.20 125.30 153.30 Z M 157.50 137.70 L 157.60 137.70 C 166.00 137.30 174.50 136.80 183.00 136.50 L 155.70 153.10 L 129.50 153.10 C 138.90 148.10 148.20 142.90 157.50 137.70 Z M 159.60 153.10 C 168.80 147.60 178.00 141.90 187.10 136.30 C 195.90 136.00 204.80 135.70 213.70 135.70 L 186.50 153.40 Z M 216.60 136.10 L 217.30 135.60 C 225.30 135.60 233.20 135.70 241.10 136.10 L 244.60 136.30 C 235.70 142.40 226.70 148.60 217.60 154.70 L 210.30 154.30 C 203.60 153.90 196.80 153.60 190.10 153.40 C 198.80 147.80 207.60 142.10 216.60 136.10 Z M 246.50 137.40 L 247.80 136.40 C 257.40 137.00 267.10 137.90 277.00 139.20 L 270.60 143.50 L 249.50 157.70 C 239.90 156.60 230.30 155.70 220.80 155.00 Z M 315.60 168.70 L 344.40 152.20 C 354.00 154.70 363.80 157.40 373.80 160.40 C 364.00 165.30 354.10 170.30 344.40 175.40 C 334.80 172.90 325.20 170.70 315.60 168.70 Z M 376.60 161.20 L 391.50 165.80 L 404.30 170.20 C 394.50 174.70 384.90 179.40 375.50 184.20 L 360.40 179.60 L 347.30 176.10 Z M 406.90 171.20 C 417.30 175.00 427.20 179.30 437.00 183.90 C 426.90 187.70 417.10 191.80 407.80 196.20 C 398.10 192.10 388.30 188.40 378.20 185.10 C 387.60 180.30 397.20 175.60 406.90 171.20 Z M 407.80 198.40 C 417.90 202.60 427.90 207.20 437.80 212.10 C 428.40 215.90 418.90 220.20 409.30 224.90 C 409.10 224.90 409.00 225.10 408.90 225.20 C 399.10 220.80 389.20 216.50 379.20 212.60 C 388.20 207.90 397.70 203.00 407.80 198.40 Z M 442.70 212.20 C 452.50 208.30 462.10 204.80 471.80 201.80 Q 486.20 209.90 500.60 218.60 C 490.82 221.02 481.17 223.96 471.70 227.40 C 462.00 222.10 452.40 217.10 442.70 212.20 Z M 503.00 220.10 C 511.20 225.00 519.40 230.10 527.70 235.30 L 532.20 238.00 C 522.80 239.80 513.10 242.10 503.40 244.80 C 493.50 239.30 483.80 233.90 474.10 228.70 C 483.56 225.28 493.21 222.41 503.00 220.10 Z M 534.80 239.60 L 541.70 243.90 C 549.00 248.40 556.30 252.70 563.50 256.90 C 554.10 258.20 544.60 259.90 535.00 262.10 C 527.30 258.00 519.40 253.80 511.50 249.40 L 505.80 246.20 C 515.60 243.50 525.30 241.30 534.80 239.60 Z M 566.40 258.50 C 576.30 264.10 586.00 269.30 595.70 274.20 C 586.30 275.10 576.80 276.40 567.30 278.10 C 557.60 273.50 547.80 268.70 537.80 263.50 C 547.40 261.40 557.00 259.70 566.40 258.50 Z M 690.90 322.10 C 682.70 320.10 674.50 318.00 666.20 315.70 C 675.40 314.50 684.70 313.50 694.20 312.70 C 702.20 315.00 710.30 317.00 718.50 318.90 C 709.60 319.90 700.50 321.00 691.40 322.40 C 691.27 322.25 691.10 322.14 690.90 322.10 Z M 722.10 317.70 C 714.70 316.00 707.40 314.20 700.10 312.30 C 708.90 311.70 717.90 311.20 727.00 311.00 C 734.40 312.90 741.80 314.60 749.30 316.20 C 740.60 316.80 731.80 317.50 722.90 318.40 C 722.77 318.04 722.47 317.78 722.10 317.70 Z M 753.30 314.90 C 747.10 313.70 740.80 312.40 734.70 310.90 C 742.70 310.80 750.80 310.80 759.10 311.00 C 765.30 312.40 771.50 313.60 777.80 314.70 L 754.10 315.90 C 754.11 315.42 753.77 315.00 753.30 314.90 Z M 784.50 313.80 L 770.60 311.30 L 792.10 312.40 C 795.50 313.10 798.90 313.60 802.30 314.10 L 785.30 314.50 C 785.25 314.10 784.91 313.80 784.50 313.80 Z M 1031.50 290.50 L 1030.50 290.80 C 1035.50 288.70 1040.60 286.40 1045.60 284.10 L 1058.20 279.90 L 1070.70 275.80 C 1064.70 278.60 1058.60 281.30 1052.50 283.90 Z M 1059.50 277.40 Q 1069.60 272.30 1079.60 266.90 L 1088.90 263.90 L 1106.00 258.30 C 1098.80 262.00 1091.60 265.70 1084.30 269.30 Z M 1089.10 261.70 C 1098.60 256.40 1108.10 250.90 1117.50 245.20 L 1143.20 237.90 C 1134.10 243.00 1125.00 248.10 1115.70 253.10 Z M 1124.10 241.20 C 1134.00 235.30 1143.80 229.20 1153.70 223.00 C 1162.10 221.10 1170.60 219.20 1179.10 217.50 L 1164.90 225.60 L 1150.10 234.00 C 1141.40 236.30 1132.70 238.70 1124.10 241.20 Z M 1158.90 219.80 C 1168.50 213.80 1178.20 207.80 1188.10 201.80 C 1196.60 200.50 1205.20 199.20 1213.90 198.20 L 1184.60 214.40 C 1176.00 216.10 1167.40 217.90 1158.90 219.80 Z M 1192.50 199.10 C 1201.90 193.40 1211.30 187.80 1220.90 182.30 C 1229.70 181.60 1238.40 181.20 1247.20 181.00 C 1237.60 185.70 1228.00 190.70 1218.60 195.70 C 1209.80 196.60 1201.10 197.80 1192.50 199.10 Z M 1251.60 165.50 Q 1265.00 165.60 1278.30 166.70 C 1269.20 170.60 1260.30 174.70 1251.50 178.90 C 1242.60 179.00 1233.80 179.40 1225.00 180.00 C 1233.70 175.10 1242.50 170.20 1251.40 165.60 Z M 1247.50 165.40 C 1238.40 170.20 1229.30 175.20 1220.30 180.30 C 1211.80 181.00 1203.30 181.80 1194.90 182.70 C 1203.60 177.00 1212.30 171.40 1221.10 166.00 L 1221.40 165.80 C 1230.10 165.50 1238.80 165.30 1247.50 165.40 Z M 1195.90 166.80 L 1217.50 165.90 C 1208.50 171.50 1199.50 177.20 1190.50 183.10 L 1178.30 184.50 L 1164.10 186.00 C 1172.90 179.60 1181.70 173.30 1190.40 167.30 L 1190.70 167.00 Z M 1157.10 168.10 C 1148.00 174.80 1139.10 181.80 1130.00 189.00 C 1122.30 189.50 1114.60 189.90 1106.90 190.00 L 1102.30 190.00 C 1111.30 182.40 1120.40 175.00 1129.50 167.90 L 1137.50 168.10 Z M 1001.90 155.00 C 992.60 161.20 982.90 167.50 973.00 173.90 C 967.60 172.60 962.40 171.20 957.10 169.70 C 951.80 168.20 947.90 166.90 943.40 165.40 C 953.70 159.30 963.50 153.10 973.00 147.30 C 978.10 148.90 983.20 150.50 988.30 151.80 C 993.40 153.10 997.40 154.00 1001.90 155.00 Z M 873.00 98.90 C 863.80 104.10 854.20 109.20 844.20 113.90 L 828.00 103.50 L 815.10 95.20 C 824.50 91.50 834.20 87.30 844.40 82.50 L 866.20 95.00 Z M 842.30 81.30 C 832.10 86.00 822.30 90.20 813.00 93.90 L 805.40 89.00 C 798.10 84.40 790.90 80.00 783.70 75.70 C 793.20 72.60 802.90 69.10 812.90 65.20 C 820.70 69.30 828.30 73.50 835.60 77.50 Z M 485.10 24.00 L 499.60 22.70 C 499.50 22.81 499.43 22.95 499.40 23.10 C 499.34 23.37 499.39 23.64 499.54 23.87 C 499.70 24.10 499.93 24.25 500.20 24.30 C 507.60 25.70 514.90 27.40 522.10 29.20 L 505.50 29.70 L 497.60 29.70 C 488.80 27.80 479.90 26.20 470.70 25.00 Z M 343.10 40.40 L 356.60 39.80 L 352.00 40.60 L 328.10 43.10 Q 335.60 41.60 343.10 40.40 Z M 311.90 46.40 C 317.20 46.10 322.50 45.60 327.90 45.10 L 320.60 46.70 C 311.80 48.10 303.20 49.30 294.70 50.30 Z M 249.40 62.90 L 249.40 62.90 L 270.50 60.20 C 264.30 62.10 258.00 64.20 251.80 66.40 C 243.80 67.70 235.80 68.80 227.80 69.90 C 235.00 67.40 242.20 65.10 249.40 62.90 Z M 181.80 87.10 L 187.30 84.90 L 211.90 81.90 C 204.00 85.20 196.20 88.80 188.50 92.30 C 179.70 93.50 170.90 94.60 162.10 95.40 Z M 156.30 97.90 Q 169.30 96.80 182.40 95.20 C 174.00 99.10 165.70 103.10 157.40 107.20 Q 143.90 108.50 130.40 109.30 Z M 98.70 169.50 C 107.80 164.90 116.80 160.10 125.80 155.30 L 152.30 155.30 C 143.60 160.60 134.80 165.70 126.10 170.50 L 125.70 170.90 L 124.00 170.90 Z M 159.90 172.30 C 169.00 166.90 178.00 161.20 187.10 155.40 C 194.80 155.60 202.50 155.80 210.20 156.30 L 214.90 156.60 Q 201.70 165.40 188.50 173.70 C 188.20 173.80 188.10 174.00 188.00 174.30 L 179.50 173.60 C 173.00 173.00 166.50 172.60 159.90 172.30 Z M 315.70 192.80 C 325.30 187.60 334.90 182.50 344.60 177.50 C 349.70 178.80 354.80 180.10 359.90 181.60 C 365.00 183.10 368.70 184.10 373.00 185.50 L 355.30 194.60 L 344.20 200.30 C 339.10 198.70 334.00 197.30 328.90 196.00 Z M 442.90 241.30 C 452.70 236.90 462.20 232.90 471.60 229.60 L 500.60 245.60 C 491.10 248.40 481.30 251.70 471.40 255.40 L 461.60 250.60 Z M 473.90 256.60 C 483.80 252.90 493.50 249.70 503.10 247.00 L 504.20 247.60 L 510.50 251.10 C 517.80 255.20 524.90 259.00 532.00 262.70 C 522.60 264.90 513.00 267.60 503.30 270.60 L 503.10 270.60 L 480.20 259.70 Z M 1032.20 295.70 L 1020.30 298.40 L 1022.90 297.50 C 1030.60 295.30 1038.30 293.10 1046.00 291.10 C 1041.40 292.70 1036.90 294.30 1032.20 295.70 Z M 1062.20 285.10 L 1044.10 289.50 L 1053.20 285.80 Q 1066.00 281.90 1078.70 278.30 C 1073.20 280.70 1067.70 282.90 1062.20 285.10 Z M 1090.40 273.30 Q 1079.20 276.00 1067.90 279.30 Q 1076.60 275.40 1085.00 271.20 C 1093.90 268.40 1102.90 265.70 1111.90 263.30 Z M 1120.90 258.90 C 1112.60 260.90 1104.20 263.30 1095.90 265.80 C 1102.80 262.20 1109.70 258.60 1116.50 254.90 C 1125.80 252.10 1135.10 249.40 1144.50 247.00 Z M 1168.60 234.50 L 1152.00 243.20 C 1143.00 245.20 1134.10 247.60 1125.20 250.20 L 1150.90 235.90 C 1159.90 233.50 1169.00 231.40 1178.10 229.50 Z M 1184.30 226.40 C 1175.30 228.00 1166.40 229.90 1157.50 232.10 L 1165.90 227.30 L 1185.30 216.30 C 1194.30 214.60 1203.30 213.20 1212.40 212.10 C 1202.90 216.80 1193.60 221.50 1184.30 226.40 Z M 1217.70 209.40 Q 1204.00 210.90 1190.70 213.30 Q 1204.80 205.30 1219.20 197.70 C 1228.30 196.70 1237.50 196.00 1246.70 195.80 C 1236.90 200.20 1227.20 204.70 1217.70 209.40 Z" stroke-linecap="round"/>
</g>
</g>
</g>
<g transform="matrix(1 0 0 1 0 0)" style="stroke: rgb(114,114,114); stroke-width: 0; stroke-dasharray: none; stroke-linecap: round; stroke-dashoffset: 0; stroke-linejoin: round; stroke-miterlimit: 10; fill: rgb(114,114,114); fill-rule: nonzero; opacity: 1;">
<path id="we3RFEbSzMAuz_u4X70-I" vector-effect="non-scaling-stroke" transform=" translate(0, 0)" d="" stroke-linecap="round"/>
</g>
<g transform="matrix(1 0 0 1 605.990503 528.682688)" style="">
<g id="QrBxnxPssffPT9PzBMUgB" vector-effect="non-scaling-stroke">
		<g transform="matrix(1 0 0 1 0 0)" style="stroke: rgb(193,193,193); stroke-width: 0; stroke-dasharray: none; stroke-linecap: round; stroke-dashoffset: 0; stroke-linejoin: miter; stroke-miterlimit: 10; fill: rgb(12,4,223); fill-rule: nonzero; opacity: 1;">
<path id="BwJn-HvwWhvyoyOYt-Dv4" vector-effect="non-scaling-stroke" transform=" translate(-207.175, 19.115)" d="M 89.16 -7.34 L 89.16 -18.36 C 89.16 -19.23 89.03 -19.79 88.77 -20.05 C 88.50 -20.32 87.94 -20.45 87.08 -20.45 L 81.75 -20.45 C 77.38 -20.45 75.20 -22.59 75.20 -26.86 L 75.20 -38.74 C 75.20 -42.96 77.43 -45.07 81.89 -45.07 L 88.95 -45.07 C 93.41 -45.07 95.64 -42.96 95.64 -38.74 L 95.64 -32.11 L 89.09 -32.11 L 89.09 -37.73 C 89.09 -38.59 88.95 -39.15 88.66 -39.42 C 88.37 -39.69 87.80 -39.82 86.93 -39.82 L 83.91 -39.82 C 83.04 -39.82 82.47 -39.69 82.18 -39.42 C 81.89 -39.15 81.75 -38.59 81.75 -37.73 L 81.75 -27.72 C 81.75 -26.85 81.89 -26.29 82.18 -26.03 C 82.47 -25.76 83.04 -25.63 83.91 -25.63 L 89.16 -25.63 C 93.58 -25.63 95.79 -23.52 95.79 -19.30 L 95.79 -6.34 C 95.79 -2.11 93.53 0.00 89.02 0.00 L 82.04 0.00 C 77.57 0.00 75.34 -2.11 75.34 -6.34 L 75.34 -12.96 L 81.89 -12.96 L 81.89 -7.34 C 81.89 -6.48 82.03 -5.92 82.32 -5.65 C 82.61 -5.39 83.19 -5.26 84.05 -5.26 L 87.08 -5.26 C 87.94 -5.26 88.50 -5.39 88.77 -5.65 C 89.03 -5.92 89.16 -6.48 89.16 -7.34 z M 112.56 -35.14 L 115.08 -35.14 C 119.45 -35.14 121.64 -33.00 121.64 -28.73 L 121.64 -6.34 C 121.64 -2.11 119.45 0.00 115.08 0.00 L 112.56 0.00 C 110.21 0.00 108.73 -0.94 108.10 -2.81 L 108.10 9.94 L 101.62 9.94 L 101.62 -35.14 L 108.10 -35.14 L 108.10 -32.33 C 108.73 -34.20 110.21 -35.14 112.56 -35.14 z M 115.16 -7.34 L 115.16 -27.79 C 115.16 -28.66 115.01 -29.22 114.72 -29.48 C 114.43 -29.75 113.86 -29.88 113.00 -29.88 L 110.48 -29.88 C 109.61 -29.88 109.00 -29.69 108.64 -29.30 C 108.28 -28.92 108.10 -28.27 108.10 -27.36 L 108.10 -7.78 C 108.10 -6.87 108.28 -6.22 108.64 -5.83 C 109.00 -5.45 109.61 -5.26 110.48 -5.26 L 113.00 -5.26 C 113.86 -5.26 114.43 -5.39 114.72 -5.65 C 115.01 -5.92 115.16 -6.48 115.16 -7.34 z M 134.09 -35.14 L 141.15 -35.14 C 145.66 -35.14 147.92 -33.00 147.92 -28.73 L 147.92 -15.55 L 133.73 -15.55 L 133.73 -7.20 C 133.73 -6.39 133.87 -5.83 134.16 -5.54 C 134.45 -5.25 135.03 -5.11 135.89 -5.11 L 139.20 -5.11 C 140.07 -5.11 140.64 -5.25 140.93 -5.54 C 141.22 -5.83 141.36 -6.41 141.36 -7.27 L 141.36 -10.15 L 147.70 -10.15 L 147.70 -6.34 C 147.70 -2.11 145.47 -0.00 141.00 -0.00 L 134.09 -0.00 C 129.63 -0.00 127.40 -2.11 127.40 -6.34 L 127.40 -28.73 C 127.40 -33.00 129.63 -35.14 134.09 -35.14 z M 133.73 -20.30 L 141.51 -20.30 L 141.51 -27.94 C 141.51 -28.75 141.38 -29.30 141.11 -29.59 C 140.85 -29.88 140.29 -30.02 139.42 -30.02 L 135.89 -30.02 C 135.03 -30.02 134.45 -29.88 134.16 -29.59 C 133.87 -29.30 133.73 -28.75 133.73 -27.94 z M 160.01 -35.14 L 167.07 -35.14 C 171.58 -35.14 173.84 -33.00 173.84 -28.73 L 173.84 -15.55 L 159.65 -15.55 L 159.65 -7.20 C 159.65 -6.39 159.79 -5.83 160.08 -5.54 C 160.37 -5.25 160.95 -5.11 161.81 -5.11 L 165.12 -5.11 C 165.99 -5.11 166.56 -5.25 166.85 -5.54 C 167.14 -5.83 167.28 -6.41 167.28 -7.27 L 167.28 -10.15 L 173.62 -10.15 L 173.62 -6.34 C 173.62 -2.11 171.39 -0.00 166.92 -0.00 L 160.01 -0.00 C 155.55 -0.00 153.32 -2.11 153.32 -6.34 L 153.32 -28.73 C 153.32 -33.00 155.55 -35.14 160.01 -35.14 z M 159.65 -20.30 L 167.43 -20.30 L 167.43 -27.94 C 167.43 -28.75 167.30 -29.30 167.03 -29.59 C 166.77 -29.88 166.21 -30.02 165.34 -30.02 L 161.81 -30.02 C 160.95 -30.02 160.37 -29.88 160.08 -29.59 C 159.79 -29.30 159.65 -28.75 159.65 -27.94 z M 199.25 -24.05 L 192.84 -24.05 L 192.84 -27.79 C 192.84 -28.66 192.70 -29.22 192.41 -29.48 C 192.12 -29.75 191.55 -29.88 190.68 -29.88 L 187.59 -29.88 C 186.72 -29.88 186.15 -29.75 185.86 -29.48 C 185.57 -29.22 185.43 -28.66 185.43 -27.79 L 185.43 -7.34 C 185.43 -6.48 185.57 -5.92 185.86 -5.65 C 186.15 -5.39 186.72 -5.26 187.59 -5.26 L 190.68 -5.26 C 191.55 -5.26 192.12 -5.39 192.41 -5.65 C 192.70 -5.92 192.84 -6.48 192.84 -7.34 L 192.84 -11.09 L 199.25 -11.09 L 199.25 -6.34 C 199.25 -2.11 196.99 0.00 192.48 0.00 L 185.64 0.00 C 181.18 0.00 178.95 -2.11 178.95 -6.34 L 178.95 -28.73 C 178.95 -33.00 181.18 -35.14 185.64 -35.14 L 192.48 -35.14 C 196.99 -35.14 199.25 -33.00 199.25 -28.73 z M 215.60 -35.14 L 218.12 -35.14 C 222.49 -35.14 224.67 -33.00 224.67 -28.73 L 224.67 0.00 L 218.19 0.00 L 218.19 -27.79 C 218.19 -28.66 218.05 -29.22 217.76 -29.48 C 217.47 -29.75 216.89 -29.88 216.03 -29.88 L 213.51 -29.88 C 212.64 -29.88 212.03 -29.69 211.67 -29.30 C 211.31 -28.92 211.13 -28.27 211.13 -27.36 L 211.13 0.00 L 204.65 0.00 L 204.65 -48.17 L 211.13 -48.17 L 211.13 -32.33 C 211.76 -34.20 213.25 -35.14 215.60 -35.14 z M 260.38 -35.14 L 266.50 -35.14 L 260.02 0.00 L 251.45 0.00 L 247.28 -26.57 L 243.10 0.00 L 234.53 0.00 L 228.12 -35.14 L 234.24 -35.14 L 238.92 -5.54 L 243.46 -35.14 L 251.16 -35.14 L 255.56 -5.54 z M 283.13 -35.14 L 289.61 -35.14 L 289.61 0.00 L 283.13 0.00 L 283.13 -2.81 C 282.51 -0.94 281.02 0.00 278.67 0.00 L 276.08 0.00 C 271.76 0.00 269.60 -2.11 269.60 -6.34 L 269.60 -28.73 C 269.60 -33.00 271.76 -35.14 276.08 -35.14 L 278.67 -35.14 C 281.02 -35.14 282.51 -34.20 283.13 -32.33 z M 278.24 -5.26 L 280.76 -5.26 C 281.62 -5.26 282.23 -5.45 282.59 -5.83 C 282.95 -6.22 283.13 -6.87 283.13 -7.78 L 283.13 -27.36 C 283.13 -28.27 282.95 -28.92 282.59 -29.30 C 282.23 -29.69 281.62 -29.88 280.76 -29.88 L 278.24 -29.88 C 277.37 -29.88 276.80 -29.75 276.51 -29.48 C 276.22 -29.22 276.08 -28.66 276.08 -27.79 L 276.08 -7.34 C 276.08 -6.48 276.22 -5.92 276.51 -5.65 C 276.80 -5.39 277.37 -5.26 278.24 -5.26 z M 299.55 -35.14 L 304.16 -5.47 L 308.84 -35.14 L 315.32 -35.14 L 308.84 0.00 L 299.55 0.00 L 293.07 -35.14 z M 325.32 -35.14 L 332.38 -35.14 C 336.89 -35.14 339.15 -33.00 339.15 -28.73 L 339.15 -15.55 L 324.96 -15.55 L 324.96 -7.20 C 324.96 -6.39 325.11 -5.83 325.40 -5.54 C 325.69 -5.25 326.26 -5.11 327.12 -5.11 L 330.44 -5.11 C 331.30 -5.11 331.87 -5.25 332.16 -5.54 C 332.45 -5.83 332.60 -6.41 332.60 -7.27 L 332.60 -10.15 L 338.93 -10.15 L 338.93 -6.34 C 338.93 -2.11 336.70 -0.00 332.24 -0.00 L 325.32 -0.00 C 320.86 -0.00 318.63 -2.11 318.63 -6.34 L 318.63 -28.73 C 318.63 -33.00 320.86 -35.14 325.32 -35.14 z M 324.96 -20.30 L 332.74 -20.30 L 332.74 -27.94 C 332.74 -28.75 332.61 -29.30 332.34 -29.59 C 332.08 -29.88 331.52 -30.02 330.65 -30.02 L 327.12 -30.02 C 326.26 -30.02 325.69 -29.88 325.40 -29.59 C 325.11 -29.30 324.96 -28.75 324.96 -27.94 z" stroke-linecap="round"/>
</g>
</g>
</g>
<g transform="matrix(1 0 0 1 0 0)" style="stroke: rgb(193,193,193); stroke-width: 0; stroke-dasharray: none; stroke-linecap: round; stroke-dashoffset: 0; stroke-linejoin: miter; stroke-miterlimit: 10; fill: rgb(114,114,114); fill-rule: nonzero; opacity: 1;">
<path id="2K4u-mZcWqete-toIvSf2" vector-effect="non-scaling-stroke" transform=" translate(0, 0)" d="" stroke-linecap="round"/>
</g>
<g transform="matrix(1 0 0 1 0 0)" style="stroke: rgb(193,193,193); stroke-width: 0; stroke-dasharray: none; stroke-linecap: round; stroke-dashoffset: 0; stroke-linejoin: miter; stroke-miterlimit: 10; fill: rgb(193,193,193); fill-rule: nonzero; opacity: 1;">
<path id="zagcKxRmkzNK2sMv8hYJO" vector-effect="non-scaling-stroke" transform=" translate(0, 0)" d="" stroke-linecap="round"/>
</g>

  </svg>